<svg version="1" xmlns="http://www.w3.org/2000/svg" width="1621.333" height="1621.333" viewBox="0 0 1216.000000 1216.000000"><path d="M319.7 114.2c-.2.7-.1 2.2.4 3.4.4 1.1.4 2.7-.1 3.4-.5.7-.5 2.3-.1 3.4.4 1.2.5 3.2.1 4.6-.4 1.4-.3 3.5.1 4.7.5 1.2.4 2.5-.1 2.8-.6.3-.6 1.5 0 2.9.5 1.3.6 2.6.3 3-.8.8-.9 42.6-.1 42.6.4 0 .3 1.1-.2 2.5-.6 1.5-.6 2.7 0 3 .6.3.6 1.5 0 3s-.6 2.7 0 3c.6.3.6 1.5 0 3s-.6 2.7 0 3c.6.3.6 1.5 0 3s-.6 2.7 0 3c.6.3.6 1.5 0 3s-.6 2.7 0 3c.6.3.6 1.5 0 3s-.6 2.7 0 3c.6.3.6 1.5 0 3s-.6 2.7 0 3c.6.3.6 1.5 0 3s-.6 2.7 0 3c.6.3.6 1.5 0 3s-.6 2.7 0 3c.6.3.6 1.5 0 3s-.6 2.7 0 3c.6.3.6 1.5 0 3-.5 1.3-.6 2.6-.2 2.9.5.3.5 3 .2 6.1-.3 3.1-.3 5.8.2 6.1.4.3.3 1.6-.2 2.9-.6 1.5-.6 2.7 0 3 .6.3.6 1.5 0 3s-.6 2.7 0 3c.6.3.6 1.5 0 3s-.6 2.7 0 3c.6.3.6 1.5 0 3s-.6 2.7 0 3c.6.3.6 1.5 0 3s-.6 2.7 0 3c.6.3.6 1.5 0 3s-.6 2.7 0 3c.6.3.6 1.5 0 3s-.6 2.7 0 3c.6.3.6 1.5 0 3s-.6 2.7 0 3c.6.3.6 1.5 0 3s-.6 2.7 0 3c.6.3.6 1.5 0 3s-.6 2.7 0 3c.5.3.6 1.5.1 2.8-.5 1.2-.5 3.4 0 4.9.4 1.6.5 2.8.1 2.8-.8 0-.7 33.3.1 35.4.3.7.1 1.9-.3 2.6-.5.8-.4 2.2.1 3.1.6 1.1.5 2-.1 2.4-.5.3-.6 1.5-.2 2.8.9 2.4.8 5.6-.1 8.1-.3.8-.2 1.8.3 2.1.6.3.6 1.5 0 3-.5 1.3-.5 2.7-.1 2.9.5.3.5 2.4.1 4.6-.4 2.2-.4 4 .1 4 .4 0 .4 1.3-.1 3-.5 1.8-.5 3 0 3 .6 0 .6 1 0 2.5s-.6 2.7 0 3c.6.3.6 1.5 0 3s-.6 2.7 0 3c.6.3.6 1.5 0 3-.5 1.3-.5 2.7-.1 2.9.5.3.5 2.4.1 4.6-.4 2.2-.4 4 .1 4 .4 0 .4 1.3-.1 3-.5 1.9-.5 3 .1 3s.7.5.4 1c-.9 1.4-1 10.8-.2 11.6.3.3.2 1.7-.3 3-.6 1.4-.6 2.6 0 2.9.5.3.6 1.5.1 2.8-.5 1.2-.5 3.2 0 4.4.5 1.3.4 2.5-.1 2.8-.6.3-.6 1.5 0 3s.6 2.7 0 3c-.6.3-.6 1.5 0 3s.6 2.7 0 3c-.6.3-.6 1.5 0 3s.6 2.7 0 3c-.6.3-.6 1.5 0 3s.6 2.7 0 3c-.6.3-.6 1.5 0 3s.6 2.7 0 3c-.6.3-.6 1.5 0 3s.6 2.7 0 3c-.6.3-.6 1.5 0 3s.6 2.7 0 3c-.6.3-.6 1.5 0 3s.6 2.7 0 3c-.6.3-.6 1.5 0 3s.6 2.7 0 3c-.6.3-.6 1.5 0 3s.6 2.7 0 3c-.6.3-.6 1.5 0 3s.6 2.7 0 3c-.6.3-.6 1.5 0 3s.6 2.7 0 3c-.6.3-.6 1.5 0 3s.6 2.7 0 3c-.6.3-.6 1.5 0 3s.6 2.7 0 3c-.5.3-.6 1.5-.1 2.8.5 1.2.5 3.4 0 4.9-.4 1.6-.4 2.8.1 2.8.6 0 .6 1 0 2.5-.5 1.3-.6 2.6-.2 2.9.9.5.6 8.1-.3 9.5-.3.5-.1 1.2.4 1.6.7.3.7 1.5.1 3-.5 1.3-.5 2.7-.1 2.9.5.3.5 2.4.1 4.6-.4 2.2-.4 4 .1 4 .4 0 .4 1.3-.1 3-.5 1.8-.5 3 0 3 .6 0 .6 1 0 2.5s-.6 2.7 0 3c.6.3.6 1.5 0 3s-.6 2.7 0 3c.6.3.6 1.5 0 3-.5 1.3-.5 2.7-.1 2.9.5.3.5 2.4.1 4.6-.4 2.2-.4 4 .1 4 .4 0 .4 1.3-.1 3-.5 1.9-.5 3 .1 3s.7.5.4 1c-.9 1.4-1 10.8-.2 11.6.3.3.2 1.7-.3 3-.6 1.4-.6 2.6 0 2.9.6.3.6 1.5 0 3s-.6 2.7 0 3c.6.3.6 1.5 0 3s-.6 2.7 0 3c.6.3.6 1.5 0 3s-.6 2.7 0 3c.6.3.6 1.5 0 3s-.6 2.7 0 3c.6.3.6 1.5 0 3s-.6 2.7 0 3c.6.3.6 1.5 0 3s-.6 2.7 0 3c.6.3.6 1.5 0 3s-.6 2.7 0 3c.6.3.6 1.5 0 3s-.6 2.7 0 3c.6.3.6 1.5 0 3s-.6 2.7 0 3c.5.3.6 1.5.1 2.8-.5 1.2-.5 3.4 0 4.9.4 1.6.5 2.8.1 2.8-.8 0-.7 33.3.1 35.4.3.7.1 1.9-.3 2.6-.5.8-.4 2.2.1 3.1.6 1.1.5 2-.1 2.4-.5.3-.6 1.5-.1 2.8.4 1.2.4 3.5.1 5.2-.3 1.6-.3 4 .1 5.2.5 1.2.4 2.5-.1 2.8-.6.3-.6 1.5 0 2.9.5 1.3.6 2.6.3 3-.8.8-.9 42.6-.1 42.6.4 0 .3 1.1-.2 2.5-.6 1.5-.6 2.7 0 3 .6.3.6 1.5 0 3s-.6 2.7 0 3c.6.3.6 1.5 0 3s-.6 2.7 0 3c.6.3.6 1.5 0 3s-.6 2.7 0 3c.6.3.6 1.5 0 3s-.6 2.7 0 3c.6.3.6 1.5 0 3s-.6 2.7 0 3c.6.3.6 1.5 0 3s-.6 2.7 0 3c.6.3.6 1.5 0 3s-.6 2.7 0 3c.6.3.6 1.5 0 3s-.6 2.7 0 3c.6.3.6 1.5 0 3s-.6 2.7 0 3c.6.3.6 1.5 0 3-.5 1.3-.6 2.7-.1 2.9.4.3.5 2.5.1 4.9-.3 2.5-.3 5.4.1 6.5.5 1.2.4 2.4-.1 2.7-.6.3-.6 1.5 0 2.9.5 1.3.6 2.6.3 3-.8.8-.9 42.6-.1 42.6.4 0 .3 1.1-.2 2.5-.6 1.5-.6 2.7 0 3 .6.3.6 1.5 0 3s-.6 2.7 0 3c.6.3.6 1.5 0 3s-.6 2.7 0 3c.6.3.6 1.5 0 3s-.6 2.7 0 3c.6.3.6 1.5 0 3s-.6 2.7 0 3c.6.3.6 1.5 0 3s-.6 2.7 0 3c.6.3.6 1.5 0 3s-.6 2.7 0 3c.6.3.6 1.5 0 3s-.6 2.7 0 3c.6.3.6 1.5 0 3s-.6 2.7 0 3c.6.3.6 1.5 0 3s-.6 2.7 0 3c.6.3.6 1.5 0 3-.5 1.3-.6 2.6-.2 2.9.9.5.6 8.1-.3 9.5-.3.5-.1 1.2.4 1.6.7.3.7 1.5.1 3-.5 1.3-.5 2.7-.1 2.9.5.3.5 2.4.1 4.6-.4 2.2-.4 4 .1 4 .4 0 .4 1.3-.1 3-.5 1.8-.5 3 0 3 .6 0 .6 1 0 2.5s-.6 2.7 0 3c.6.3.6 1.5 0 3s-.6 2.7 0 3c.6.3.6 1.5 0 3-.5 1.3-.5 2.7-.1 2.9.5.3.5 2.4.1 4.6-.4 2.2-.4 4 .1 4 .4 0 .4 1.3-.1 3-.5 1.9-.5 3 .1 3s.7.5.4 1c-.9 1.4-1 10.8-.2 11.6.3.3.2 1.7-.3 3-.6 1.4-.6 2.6 0 2.9.5.3.7 1.2.3 2-.4 1.3 13.5 1.5 111.7 1.5 111.7 0 112.2 0 111.7-2-.3-1.1-.1-2 .4-2 .6 0 .6-.7 0-1.8s-.6-2.4 0-3.4c.5-.9.5-1.9.1-2.2-.5-.3-.6-2.6-.2-5.1.4-2.5.3-4.5-.2-4.5s-.4-.9.2-2c.8-1.4.8-2 0-2-.6 0-.8-.4-.5-1 1-1.6 1.1-9 .2-9-.4 0-.5-.4-.2-1 .9-1.5 1.2-8.9.3-8.4-.4.3-.4-.6.2-2 .6-1.6.6-2.6 0-2.6s-.6-.9 0-2.5.6-2.5 0-2.5-.6-.9-.1-2.3c.5-1.2.5-3.2 0-4.5-.5-1.3-.5-2.2.1-2.2s.6-.9 0-2.5-.6-2.5.1-2.5c.6 0 .6-.6 0-1.8-.6-1-.6-2.4-.1-3.2.5-.8.6-1.9.2-2.5-.9-1.4-.9-4.7.1-6.8.5-1 .4-1.7-.3-1.7-.8 0-.8-.6 0-2s.8-2 0-2-.8-.6 0-2 .8-2 0-2-.8-.6 0-2 .8-2 0-2-.8-.6 0-2 .8-2 0-2-.8-.6 0-2 .8-2 0-2-.8-.6 0-2 .8-2 0-2c-.6 0-.8-.5-.5-1.1 1-1.6 1.2-7.9.2-7.9-.4 0-.3-.8.2-1.8.6-1.1.6-2.4.1-3.2-.5-.9-.5-1.9.1-2.6.7-.8.6-1.4-.1-1.9-.7-.4-.7-1.2 0-2.5s.7-2.1 0-2.5c-.7-.4-.7-1.2 0-2.5s.7-2.1 0-2.5c-.7-.4-.7-1.3 0-2.6.8-1.3.7-1.9 0-1.9s-.8-.6-.1-1.8c.6-1.1.6-2.4.1-3.2-.5-.9-.5-1.9.1-2.6.7-.8.6-1.4-.1-1.9-.7-.4-.7-1.2 0-2.5s.7-2.1 0-2.5c-.7-.4-.7-1.2 0-2.5s.7-2.1 0-2.5c-.7-.4-.7-1.3 0-2.6.8-1.3.7-1.9 0-1.9s-.8-.6-.1-1.8c.6-1.1.6-2.4 0-3.4-.6-1.1-.5-1.9.1-2.3.8-.5.8-1.1 0-2-.8-1-.8-1.9 0-3.4.7-1.5.7-2.1 0-2.1-.8 0-.8-.6 0-2s.8-2 0-2-.8-.6 0-2 .8-2 0-2-.8-.6 0-2 .8-2 0-2-.8-.6 0-2 .8-2 0-2-.8-.6 0-2 .8-2 0-2-.8-.6 0-2 .8-2 0-2-.8-.6 0-2c.7-1.3.7-2.6.1-3.8-.6-1.1-.6-2.4 0-3.5.7-1.1.6-1.7-.1-1.7s-.8-.6 0-1.9c.5-1.1.6-2.1.1-2.3-.5-.2-.5-1.3 0-2.7.7-1.7 1.5-2.2 2.9-1.8 1.1.3 2 .1 2-.3 0-.5 1.3-.5 2.9 0 1.6.4 3.2.6 3.5.3.7-.8 10.5-.7 11.3.1.3.3 1.3.1 2.2-.4 1-.5 2.3-.5 3.1 0 .7.4 2.3.5 3.5 0 1.2-.5 2.8-.5 3.5 0 .7.5 2.3.4 3.6 0 1.2-.5 2.4-.6 2.7-.3.9.8 11.7.9 11.7.1 0-.4 1.3-.3 2.9.2 1.6.4 3.2.5 3.6.2.6-.7 10.5-.5 11.2.2.2.2 1.8 0 3.4-.4 1.6-.5 2.9-.5 2.9 0s1.3.5 3 0 3.2-.5 3.5 0c.3.5 1.6.5 3 0 1.3-.5 2.7-.6 2.9-.1.3.4 2.5.5 4.8.1 2.4-.3 5.4-.3 6.8 0 1.4.4 3.7.3 5.3-.1 1.5-.4 2.7-.4 2.7.1s1.3.5 3 0 3.2-.5 3.5 0c.3.5 1.6.5 3 0 1.3-.5 2.7-.6 2.9-.1.3.4 2 .6 3.8.3 1.8-.2 3-.1 2.6.3-.4.5-.3 1.4.3 2.2.8.9.8 1.3 0 1.3-.7 0-.8.8-.1 2.4.5 1.5.5 2.7-.2 3.4-.6.6-.6 1.2 0 1.6.6.3.7 2 .2 4.1-.4 2-.4 3.8.1 4.1.5.3.5 1.2 0 2.3-.6 1-.6 2.3-.1 3.1.5.9.5 1.9-.1 2.6-.6.8-.7 1.4 0 1.8.5.4.6 1.8.2 3.4-.5 1.5-.4 3.7 0 5 .5 1.3.5 2.2-.2 2.2-.6 0-.6.6 0 1.9.6 1 .7 2.1.4 2.5-.9.9-.9 6.6 0 6.6.5 0 .5.5.1 1.1-.8 1.4-.9 11.8 0 12.6.3.4.1 1.2-.5 1.9-.7.8-.7 1.4.1 1.9.6.4.7 1.2.1 2.4-.6 1-.6 2.3-.1 3.1.5.9.5 1.9-.1 2.6-.7.8-.6 1.4.1 1.9.7.4.7 1.2 0 2.5s-.7 2.1 0 2.5c.6.4.7 1.3.1 2.4-.6 1-.6 2.3-.1 3.1.5.9.5 1.9-.1 2.6-.6.8-.7 1.4 0 1.8.5.4.6 1.8.2 3.4-.5 1.5-.4 3.7 0 5 .5 1.3.5 2.2-.2 2.2-.6 0-.6.6 0 1.9.6 1 .7 2.1.4 2.5-.9.9-.9 6.6 0 6.6.5 0 .5.5.1 1.1-.8 1.4-.9 11.8 0 12.6.3.4.1 1.2-.5 1.9-.7.8-.7 1.4.1 1.9.6.4.7 1.2.1 2.4-.6 1-.6 2.3-.1 3.1.5.9.5 1.9-.1 2.6-.6.8-.7 1.4 0 1.8.6.4.6 1.8.1 3.6-.5 1.9-.5 3 .1 3s.5.8-.1 2c-.8 1.4-.8 2 0 2 .6 0 .8.4.5 1-1 1.6-1.1 9-.2 9 .4 0 .5.4.2 1-.9 1.5-1.2 8.9-.3 8.4.4-.3.4.6-.2 2-.6 1.6-.6 2.6 0 2.6s.6.9 0 2.5-.6 2.5 0 2.5.6.9.1 2.3c-.5 1.2-.5 3.2 0 4.4.5 1.4.5 2.3-.1 2.3s-.6.9 0 2.5.6 2.5-.1 2.5c-.6 0-.6.6 0 1.8.6 1 .6 2.4.1 3.2-.5.8-.6 1.9-.2 2.5.9 1.4.9 4.7-.1 6.8-.5 1-.4 1.7.3 1.7.8 0 .8.6 0 2s-.8 2 0 2 .8.6 0 2-.8 2 0 2 .8.6 0 2c-1.1 2-.8 2 111.5 2H896l.1-2.3c.2-5-.1-13-.5-13.4-.3-.3-.1-1.6.4-2.9.6-1.4.6-2.6 0-2.9-.6-.3-.6-1.5 0-3 .5-1.3.5-2.7.1-2.9-.5-.3-.5-2.4-.1-4.6.4-2.2.4-4-.1-4-.4 0-.4-1.4.1-3 .5-1.8.5-3 0-3-.6 0-.6-1 0-2.5s.6-2.7 0-3c-.6-.3-.6-1.5 0-3s.6-2.7 0-3c-.6-.3-.6-1.5 0-3 .5-1.3.5-2.7.1-2.9-.5-.3-.5-2.4-.1-4.6.4-2.2.4-4-.1-4-.4 0-.4-1.4.1-3 .5-1.9.5-3-.1-3s-.7-.5-.4-1c.9-1.4 1-10.8.2-11.6-.3-.3-.2-1.7.3-3 .6-1.4.6-2.6 0-2.9-.6-.3-.6-1.5 0-3s.6-2.7 0-3c-.6-.3-.6-1.5 0-3s.6-2.7 0-3c-.6-.3-.6-1.5 0-3s.6-2.7 0-3c-.6-.3-.6-1.5 0-3s.6-2.7 0-3c-.6-.3-.6-1.5 0-3s.6-2.7 0-3c-.6-.3-.6-1.5 0-3s.6-2.7 0-3c-.6-.3-.6-1.5 0-3s.6-2.7 0-3c-.6-.3-.6-1.5 0-3s.6-2.7 0-3c-.6-.3-.6-1.5 0-3s.6-2.7 0-3c-.6-.3-.6-1.5 0-3s.6-2.7 0-3c-.6-.3-.6-1.5 0-3s.6-2.7 0-3c-.6-.3-.6-1.5 0-3s.6-2.7 0-3c-.6-.3-.6-1.5 0-3s.6-2.7 0-3c-.6-.3-.6-1.5 0-3s.6-2.7 0-3c-.6-.3-.6-1.5 0-3s.6-2.7 0-3c-.6-.3-.6-1.5 0-2.9.5-1.3.6-2.7.3-3-.7-.7-1-7.6-.3-7.6s.4-122.6-.3-124.3c-.3-.8-.1-2 .3-2.7.5-.8.4-2.2-.1-3.1-.6-1.1-.5-2 .1-2.4.5-.3.6-1.5.1-2.7-.4-1.1-.4-4-.1-6.5.4-2.4.3-4.6-.1-4.9-.5-.2-.4-1.6.1-2.9.6-1.5.6-2.7 0-3-.6-.3-.6-1.5 0-3s.6-2.7 0-3c-.6-.3-.6-1.5 0-3s.6-2.7 0-3c-.6-.3-.6-1.5 0-3s.6-2.7 0-3c-.6-.3-.6-1.5 0-3s.6-2.7 0-3c-.6-.3-.6-1.5 0-3s.6-2.7 0-3c-.6-.3-.6-1.5 0-3s.6-2.7 0-3c-.6-.3-.6-1.5 0-3s.6-2.7 0-3c-.6-.3-.6-1.5 0-3s.6-2.7 0-3c-.6-.3-.6-1.5 0-3s.6-2.7 0-3c-.6-.3-.6-1.5 0-3s.6-2.7 0-3c-.6-.3-.6-1.5 0-3s.6-2.7 0-3c-.6-.3-.6-1.5 0-3s.6-2.7 0-3c-.6-.3-.6-1.5 0-3s.6-2.7 0-3c-.6-.3-.6-1.5 0-3s.6-2.7 0-3c-.6-.3-.6-1.5 0-3s.6-2.7 0-3c-.6-.3-.6-1.5 0-2.9.5-1.3.6-2.7.3-3-.7-.7-1-7.6-.3-7.6s.4-122.6-.3-124.3c-.3-.8-.1-2 .3-2.7.5-.8.4-2.2-.1-3.1-.6-1.1-.5-2 .1-2.4.5-.3.6-1.5.1-2.7-.4-1.1-.4-4-.1-6.5.4-2.4.3-4.6-.1-4.9-.5-.2-.4-1.6.1-2.9.6-1.5.6-2.7 0-3-.6-.3-.6-1.5 0-3s.6-2.7 0-3c-.6-.3-.6-1.5 0-3s.6-2.7 0-3c-.6-.3-.6-1.5 0-3s.6-2.7 0-3c-.6-.3-.6-1.5 0-3s.6-2.7 0-3c-.6-.3-.6-1.5 0-3s.6-2.7 0-3c-.6-.3-.6-1.5 0-3s.6-2.7 0-3c-.6-.3-.6-1.5 0-3s.6-2.7 0-3c-.6-.3-.6-1.5 0-3s.6-2.7 0-3c-.6-.3-.6-1.5 0-3s.6-2.7 0-3c-.6-.3-.6-1.5 0-3s.6-2.7 0-3c-.6-.3-.6-1.5 0-3s.6-2.7 0-3c-.6-.3-.6-1.5 0-3s.6-2.7 0-3c-.6-.3-.6-1.5 0-3s.6-2.7 0-3c-.6-.3-.6-1.5 0-3s.6-2.7 0-3c-.6-.3-.6-1.5 0-3s.6-2.7 0-3c-.6-.3-.6-1.5 0-2.9.5-1.3.6-2.7.3-3-.7-.7-1-7.6-.3-7.6s.4-122.6-.3-124.3c-.3-.8-.1-2 .3-2.7.5-.8.4-2.2-.1-3.1-.6-1.1-.5-2 .1-2.4.5-.3.6-1.5.1-2.7-.4-1.1-.4-4-.1-6.5.4-2.4.3-4.6-.1-4.9-.5-.2-.4-1.6.1-2.9.6-1.5.6-2.7 0-3-.6-.3-.6-1.5 0-3s.6-2.7 0-3c-.6-.3-.6-1.5 0-3s.6-2.7 0-3c-.6-.3-.6-1.5 0-3s.6-2.7 0-3c-.6-.3-.6-1.5 0-3s.6-2.7 0-3c-.6-.3-.6-1.5 0-3s.6-2.7 0-3c-.6-.3-.6-1.5 0-3s.6-2.7 0-3c-.6-.3-.6-1.5 0-3s.6-2.7 0-3c-.6-.3-.6-1.5 0-3s.6-2.7 0-3c-.6-.3-.6-1.5 0-3s.6-2.7 0-3c-.6-.3-.6-1.5 0-3s.6-2.7 0-3c-.6-.3-.6-1.5 0-3s.6-2.7 0-3c-.6-.3-.6-1.5 0-3s.6-2.7 0-3c-.6-.3-.6-1.5 0-3s.6-2.7 0-3c-.6-.3-.6-1.5 0-3s.6-2.7 0-3c-.6-.3-.6-1.5 0-3s.6-2.7 0-3c-.6-.3-.6-1.5 0-2.9.5-1.3.6-2.7.3-3-.7-.7-1-7.6-.3-7.6.3 0 .5-5.2.5-11.5s-.3-11.5-.7-11.5c-.3 0-.4-.9-.1-2 .5-2 0-2-287.5-2-229.5 0-288.1.3-288.5 1.2zm142 93.9H483c13 0 14.5 0 17.3-.2.6-.1 5.3-.1 10.2 0 5 .1 13.7.1 19.5.2 5.8 0 11 0 11.5.1.6 0 2.6 0 4.5-.1s7.7-.2 12.8-.2h10c.4-.1 2.2-.1 4.1 0 2.5.1 3.2.5 2.7 1.6-.3.8-.1 1.5.5 1.5s.6.7-.1 1.9c-.7 1.4-.7 2.2 0 2.6.7.5.8 1.1.1 1.9-.6.7-.6 1.7-.1 2.6.5.8.5 2.1-.1 3.2-.7 1.2-.6 1.8.1 1.8.8 0 .8.6 0 2-.6 1.2-.7 2-.1 2s.6 1.1.1 3-.5 3 .1 3 .6.7-.1 1.9c-.7 1.4-.7 2.2 0 2.6.7.5.8 1.1.1 1.9-.6.7-.6 1.7-.1 2.6.5.8.5 2.1-.1 3.2-.7 1.2-.6 1.8.1 1.8.8 0 .8.6 0 2-.6 1.2-.7 2-.1 2s.6 1.1.1 3-.5 3 .1 3 .6.7-.1 1.9c-.7 1.4-.7 2.2 0 2.6.7.5.8 1.1.1 1.9-.6.7-.6 1.7-.1 2.6.5.8.5 2.1-.1 3.2-.7 1.2-.6 1.8.1 1.8.8 0 .8.6 0 2-.6 1.2-.7 2-.1 2s.6 1.1.1 3-.5 3 .1 3 .6.7-.1 1.9c-.7 1.4-.7 2.2 0 2.6.7.5.8 1.1.1 1.9-.6.7-.6 1.7-.1 2.6.5.8.5 2.1-.1 3.2-.7 1.2-.6 1.8.1 1.8.8 0 .8.6 0 2-.6 1.2-.7 2-.1 2s.6 1.1.1 3-.5 3 .1 3 .6.7-.1 1.9c-.7 1.4-.7 2.2.1 2.7.7.4.8.9 0 1.7-.5.5-.7 1.7-.3 2.6.9 2 .9 4.2-.1 5.8-.4.6-.3 1.4.3 1.8.7.4.7 1.2 0 2.6-.8 1.3-.7 1.9 0 1.9.8 0 .8.6 0 2-.7 1.3-.7 2-.1 2 .7 0 .7.8 0 2.4-.9 2-1.6 2.3-3.4 1.6-1.2-.4-2.8-.4-3.5 0-.8.5-1.8.6-2.3.3-1.3-.8-11.7-.9-11.7-.1 0 .4-1.3.3-2.9-.2-1.6-.4-3.2-.5-3.6-.2-.6.7-10.5.5-11.2-.2-.2-.2-1.8 0-3.4.4-1.6.5-2.9.5-2.9 0s-1.3-.5-3 0-3.2.5-3.5 0c-.3-.5-1.6-.5-3 0-1.3.5-2.6.6-2.9.2-.3-.5-3-.5-6.1-.2-3.1.3-5.8.3-6.1-.2-.3-.4-1.6-.3-2.9.2-1.4.5-2.7.5-3 0-.3-.5-1.8-.5-3.5 0-1.6.5-3.2.5-3.5 0-.3-.5-1.8-.5-3.3-.1-1.5.5-3.6.5-4.6.1-1.1-.3-3.9-.3-6.3 0-2.4.4-4.6.3-4.9-.1-.2-.5-1.6-.4-2.9.1-1.4.5-2.7.5-3 0-.3-.5-1.8-.5-3.5 0-1.6.5-3.2.5-3.5 0-.3-.5-1.8-.5-3.3-.1-1.5.5-3.6.5-4.7.1s-2.5-.5-3.2-.3c-.6.3-1.6-.5-2.3-1.6-.6-1.2-.7-2.1-.2-2.1.9 0 .8-5.3-.2-6.9-.4-.5-.2-1.2.4-1.6.6-.4.7-1.1.3-1.8-.8-1.3-.7-10.2.2-11.7.3-.5.2-1-.4-1-.7 0-.7-.8-.1-2.5.6-1.6.6-2.5 0-2.5s-.6-.9 0-2.5.6-2.5-.1-2.5c-.6 0-.6-.7.1-1.9.7-1.3.7-2.2 0-2.6-.7-.4-.7-1.2 0-2.5s.7-2.1 0-2.5c-.7-.4-.7-1.3 0-2.6.7-1.2.7-1.9.1-1.9-.7 0-.7-.9-.1-2.5s.6-2.5 0-2.5-.6-.9 0-2.5.6-2.5-.1-2.5c-.6 0-.6-.7.1-1.9.7-1.3.7-2.2 0-2.6-.7-.4-.7-1.2 0-2.5s.7-2.1 0-2.5c-.7-.4-.7-1.3 0-2.6.6-1 .7-1.9.3-1.9-1 0-.8-6.3.2-7.9.3-.6.1-1.1-.5-1.1-.8 0-.8-.6 0-2s.8-2 0-2-.8-.6 0-2 .8-2 0-2-.8-.6 0-2 .8-2 0-2-.8-.6 0-2 .8-2 0-2-.8-.6 0-2 .8-2 0-2-.8-.6 0-2 .8-2 0-2-.8-.6 0-2 .8-2 0-2-.8-.6 0-2 .8-2 0-2-.8-.6 0-2 .8-2 0-2-.8-.6 0-2c.7-1.3.7-2 .1-2s-.8-.7-.4-1.6c.6-1.6 4.3-3.5 5.5-2.7.4.2 4.2.4 8.5.4zm208.8-.1c2.8-.1 5.5-.1 6-.1 6.6 0 19.3.1 24.3.1 3.4 0 6.6.1 7 .1.4.1 1.2.1 1.7 0 .9-.2 21.2-.1 24 .1.6 0 2.6-.1 4.5-.1 3.8-.2 20.6-.3 25.5-.1 3.5.1 6 2.7 4.4 4.6-.7.8-.7 1.4.1 1.9.7.4.7 1.2 0 2.5s-.7 2.1 0 2.5c.6.4.7 1.2.1 2.3-.5.9-.5 2.6 0 3.9.5 1.4.5 2.3-.1 2.3-.5 0-.7.7-.3 1.5.8 2.3.9 18.4.1 17.8-.5-.2-.4.7.2 2.1.6 1.8.6 2.6-.1 2.6-.6 0-.7.5-.3 1.1.9 1.5.8 11.4-.1 12.8-.3.6-.2 1.1.4 1.1.7 0 .7.8.1 2.5-.6 1.6-.6 2.5 0 2.5s.6.9 0 2.5-.6 2.5.1 2.5c.6 0 .6.7-.1 1.9-.7 1.3-.7 2.2 0 2.6.7.4.7 1.2 0 2.5s-.7 2.1 0 2.5c.7.4.7 1.3 0 2.6-.7 1.2-.7 1.9-.1 1.9.7 0 .7.9.1 2.5s-.6 2.5 0 2.5.6.9 0 2.5-.6 2.5.1 2.5c.6 0 .6.7-.1 1.9-.7 1.3-.7 2.2 0 2.6.7.4.7 1.2 0 2.5s-.7 2.1 0 2.5c.7.4.7 1.3 0 2.6-.7 1.2-.7 1.9-.1 1.9.7 0 .7.9.1 2.5s-.6 2.5 0 2.5.6.9 0 2.5-.6 2.5 0 2.5.6.9 0 2.5-.6 2.5.1 2.5c.6 0 .6.7-.1 1.9-.7 1.4-.7 2.2.2 2.7 1.9 1.2-2.2 2.2-5.7 1.4-1.7-.4-4.1-.3-5.3.1-1.2.5-2.4.4-2.7-.1-.3-.6-1.5-.6-3 0s-2.7.6-3 0c-.3-.6-1.5-.6-2.9 0-1.3.5-2.6.6-2.9.3-.9-.8-11.7-.9-11.7-.1 0 .4-1.3.3-2.9-.2-1.6-.4-3.2-.6-3.5-.3-.7.8-10.5.7-11.3-.1-.3-.3-1.3-.1-2.2.4-1 .5-2.3.5-3.1 0-.7-.4-2.3-.5-3.5 0-1.2.5-2.8.5-3.5 0-.7-.5-2.3-.4-3.6 0-1.2.5-2.4.6-2.7.3-.9-.8-11.7-.9-11.7-.1 0 .4-1.3.3-2.9-.2-1.6-.4-3.2-.5-3.6-.2-.6.7-10.5.5-11.2-.2-.2-.2-1.8 0-3.4.4-1.6.5-2.9.5-2.9 0s-1.3-.5-3 0-3.2.5-3.5 0c-.3-.5-1.6-.5-3 0-1.3.5-2.6.6-2.9.2-.3-.5-1.8-.7-3.5-.6-2.1.1-3.1-.3-3.4-1.7-.3-1-.1-1.9.4-1.9.4 0 .6-.6.3-1.3-.9-2.3-1-9.1-.2-11.5.4-1.2.4-2.2 0-2.2s-.7-1.1-.7-2.5.3-2.5.7-2.5c.4 0 .4-1-.1-2.2-.4-1.2-.5-3.7-.1-5.5.5-1.9.4-3.3-.1-3.3-.6 0-.5-.8.1-1.9.7-1.4.7-2.2 0-2.6-.7-.5-.8-1.1-.1-1.9.6-.7.6-1.7.1-2.6-.5-.8-.5-2.1.1-3.2.7-1.2.6-1.8-.1-1.8-.8 0-.8-.6 0-2 .6-1.2.7-2 .1-2s-.6-1.1-.1-3 .5-3-.1-3-.6-.7.1-1.9c.7-1.4.7-2.2 0-2.6-.7-.5-.8-1.1-.1-1.9.6-.7.6-1.7.1-2.6-.5-.8-.5-2.1.1-3.2.7-1.2.6-1.8-.1-1.8-.8 0-.8-.6 0-2 .6-1.2.7-2 .1-2s-.6-1.1-.1-3 .5-3-.1-3-.6-.7.1-1.9c.7-1.4.7-2.2 0-2.6-.7-.5-.8-1.1-.1-1.9.6-.7.6-1.7.1-2.6-.5-.8-.5-2.1.1-3.2.7-1.2.6-1.8-.1-1.8-.8 0-.8-.6 0-2 .6-1.1.7-2 .3-2-.4 0-.8-1.6-.8-3.5s.4-3.5.8-3.5c.5 0 .5-.5.2-1-.9-1.5-1.2-12.9-.3-12.3.5.2.4-.7-.2-2.1-.6-1.8-.6-2.6.1-2.6.6 0 .8-.4.4-.9-.3-.6 1.2-1 3.5-.9 2.3 0 4.3-.1 4.5-.3.2-.2 4.1-.3 8.7-.1 4.5.1 10.6.2 13.3.2zM455.6 400c1.3-.5 2.4-.6 2.4-.2 0 .5 2.3.6 5 .2 2.8-.4 5-.3 5 .2 0 .4 1.1.4 2.3-.1 1.3-.5 3-.5 3.7-.1.8.5 2.1.5 2.9 0 2.4-1.2 2.4-1.2 5.2-.1 1.5.5 3 .7 3.3.4.7-.8 6.6-1 6.6-.3 0 .4 7.1.4 7.8 0 .3-.2 7-.2 8 0 .4.1 2.3.1 4.2 0 8.5-.5 11-.5 11 .2 0 .4 1.2.3 2.6-.2 1.6-.6 3.2-.7 4.2-.1s2.3.6 3.4 0c1-.6 1.9-.5 2.3.1.4.6 1.3.7 2.4.1.9-.5 2.3-.6 3.1-.1.7.4 1.8.6 2.4.4 1.7-.7 10.6-1 10.6-.4 0 .7 7.9.4 8.7-.3.3-.4 1.4-.2 2.4.3 1.1.6 2 .6 2.4.1.3-.6 1.7-.6 3.5-.1 1.9.5 3 .5 3-.1s.5-.7 1.1-.4c.6.4.8 1.3.5 2.1-.3.8-.1 1.4.5 1.4s.6.7-.1 2c-.8 1.4-.8 2 0 2 .7 0 .8.6 0 1.9-.6 1.3-.7 2.2 0 2.6.5.3.6 1.5.1 2.8-.5 1.4-.5 3 0 4 .7 1.1.6 1.7 0 1.7-.7 0-.7.8-.1 2.5.6 1.5.6 2.6 0 3-.7.4-.6 1.3 0 2.6.8 1.3.7 1.9 0 1.9-.8 0-.8.6 0 2s.8 2 0 2c-.7 0-.8.6-.1 1.8.5 1 .6 2.4.1 3.2-.5.8-.4 2.2.1 3.2.6 1.2.6 1.8 0 1.8-.7 0-.7.9-.1 2.5s.6 2.6-.1 3.1c-.7.4-.6 1 .1 1.9.7.9.8 1.5.1 1.9-.7.5-.7 1.5-.1 3.2.7 1.7.7 2.3 0 1.9-.7-.4-.7.2 0 1.9.6 1.6.6 2.7 0 3.1-.7.4-.6 1.3 0 2.6.8 1.3.7 1.9 0 1.9s-.8.6-.1 1.7c.6 1.1.6 2.4 0 3.5-.6 1-.5 1.9.1 2.3.6.4.7 1.1.3 1.8-.8 1.4-1.1 5.7-.3 5.7.7 0 .3 7.7-.5 9-.3.6-.3 1 .2 1 .4 0 .8 1.1.8 2.5s-.4 2.5-.8 2.5-.3.9.3 2 .7 2 .3 2c-.4 0-.8 1.1-.8 2.5s.3 2.5.6 2.5c.4 0 .3 1.8-.1 3.9-.4 2.1-.3 4.6.2 5.4.5.9.4 1.8-.1 2.2-.6.3-.7 1.5-.2 2.8.5 1.2.5 3.1.1 4.3-.9 2.2-4 4.1-4 2.3 0-.6-.7-.6-2 .1-1.4.8-2 .8-2 0s-.6-.8-2 0-2 .8-2 0c0-.7-.6-.8-1.7-.2-2 .9-6 .8-7-.2-.3-.3-1.2-.1-1.9.5-.8.7-1.4.7-1.9-.1-.4-.7-1.2-.7-2.6 0-1.3.8-1.9.7-1.9 0s-.6-.8-1.8-.1c-1.1.6-2.4.6-3.2.1-.9-.5-1.9-.5-2.6.1-.8.7-1.4.6-1.9-.1-.4-.7-1.2-.7-2.4 0-1 .5-2.1.7-2.4.3-1-.9-5.1-1-6.9-.1-1.2.6-1.8.5-1.8-.2 0-.8-.6-.8-2 0s-2 .8-2 0-.6-.8-2 0-2 .8-2 0c0-.7-.7-.8-1.7-.3-2.1 1-4.4 1-5.8.1-.6-.4-1.7-.3-2.5.2-.7.4-2.4.4-3.7-.1-1.5-.5-2.3-.5-2.3.2 0 .6-.6.7-1.7 0-1-.5-2.6-.5-4 0s-2.3.5-2.3-.1-.9-.6-2.3-.1c-1.3.5-3 .5-3.7.1-.8-.5-1.9-.5-2.6.1-.8.7-1.4.6-1.9-.1-.4-.7-1.2-.7-2.5 0s-2.1.7-2.5 0c-.4-.6-1.2-.7-2.3-.1-.9.5-2.6.5-3.9 0-1.5-.5-2.3-.5-2.3.2 0 .6-.7.6-2-.1s-2-.7-2-.1c0 .7-.9.7-2.5.1-1.4-.5-2.5-.6-2.5-.2 0 .4-1.3.7-3 .7-1.6 0-3-.3-3-.6s-1.2-.4-2.7-.1c-1.6.2-2.5.1-2.1-.3.4-.5.3-1.4-.3-2.2-.9-.9-.8-1.3 0-1.3.9 0 .9-.5.1-2-.7-1.3-.7-2-.1-2 .7 0 .7-.9.1-2.5-.5-1.4-.6-2.5-.1-2.5.9 0 .7-4.3-.3-5.9-.4-.5-.2-1.2.4-1.6.7-.4.7-1.2 0-2.5s-.7-2.1 0-2.5c.7-.4.7-1.2 0-2.5s-.7-2.1 0-2.5c.7-.4.7-1.2 0-2.5s-.7-2.1 0-2.5c.7-.4.7-1.3 0-2.6-.8-1.3-.7-1.9 0-1.9s.8-.6 0-1.9c-.7-1.3-.7-2.2 0-2.6.7-.4.7-1.2 0-2.5s-.7-2.1 0-2.5c.7-.4.7-1.2 0-2.5s-.7-2.1 0-2.5c.7-.4.7-1.2 0-2.5s-.7-2.1 0-2.5c.7-.4.7-1.3 0-2.6-.8-1.3-.7-1.9 0-1.9s.8-.6 0-1.9c-.7-1.3-.7-2.2 0-2.6.7-.4.7-1.2 0-2.5s-.7-2.1 0-2.5c.6-.4.7-1.1.4-1.7-1-1.7-1.1-5.1-.2-7.1.6-1.1.5-1.7-.2-1.7-.8 0-.8-.6 0-2s.8-2 0-2-.8-.6 0-2 .8-2 0-2-.8-.6 0-2 .8-2 0-2-.8-.6 0-2 .8-2 0-2-.8-.6 0-2 .8-2 0-2-.8-.6 0-2 .8-2 0-2-.8-.6 0-2 .8-2 0-2-.8-.6 0-2 .8-2 0-2-.8-.6 0-2 .8-2 0-2-.8-.6 0-2c.7-1.3.7-2 .1-2s-.8-.7-.4-1.6c.7-1.8 4.6-3.6 5.1-2.3.2.4 1.4.4 2.8-.1zm192 0c1.3-.5 2.4-.6 2.4-.2 0 .5 2.3.6 5 .2 2.8-.4 5-.3 5 .2 0 .4 1.1.4 2.3-.1 1.3-.5 3-.5 3.7-.1.8.5 2.1.5 2.9 0 2.4-1.2 2.4-1.2 5.2-.1 1.5.5 3 .7 3.3.4.7-.8 6.6-1 6.6-.3 0 .4 7.1.4 7.8 0 .6-.4 7.3-.3 7.7.2.3.3 2.3.2 4.5-.2s4-.4 4 .1 1.1.5 2.3 0c1.3-.5 3-.5 3.7-.1.8.5 2.1.5 2.9.1 1.6-.9 4.9-.7 5.8.3.3.3 1.4.1 2.4-.4 1.2-.7 2-.7 2.4 0 .4.6 1.3.7 2.4.1.9-.5 2.3-.6 3.1-.1.7.4 1.8.6 2.4.4 1.9-.7 10.6-1 10.6-.4 0 .4 2.3.4 5 0 2.8-.4 5-.3 5 .2 0 .4 1.1.3 2.5-.2 1.5-.6 2.7-.6 3 0 .3.6 1.5.6 2.9 0 1.9-.7 2.5-.5 3.4 1.5.6 1.3.8 2.6.5 2.9-.9.9-.9 6.6-.1 6.6.4 0 .3 1.1-.2 2.5-.6 1.6-.6 2.5 0 2.5s.6.9 0 2.5-.6 2.5.1 2.5c.6 0 .6.7-.1 1.9-.7 1.3-.7 2.2 0 2.6.7.4.7 1.2 0 2.5s-.7 2.1 0 2.5c.7.4.7 1.3 0 2.6-.7 1.2-.7 1.9-.1 1.9.7 0 .7.9.1 2.5s-.6 2.5 0 2.5.6.9 0 2.5-.6 2.5.1 2.5c.6 0 .6.7-.1 1.9-.7 1.3-.7 2.2 0 2.6.7.4.7 1.2 0 2.5s-.7 2.1 0 2.5c.7.4.7 1.3 0 2.6-.7 1.2-.7 1.9-.1 1.9.7 0 .7.9.1 2.5s-.6 2.5 0 2.5.6.9 0 2.5-.6 2.5.1 2.5c.6 0 .6.7-.1 1.9-.7 1.3-.7 2.2 0 2.6.7.4.7 1.2 0 2.5s-.7 2.1 0 2.5c.7.4.7 1.3 0 2.6-.7 1.2-.7 1.9-.1 1.9.7 0 .7.9.1 2.5s-.6 2.5 0 2.5.6.9 0 2.5-.6 2.5.1 2.5c.6 0 .6.7-.1 1.9-.7 1.3-.7 2.2 0 2.6.7.4.7 1.2 0 2.5s-.7 2.1 0 2.5c.7.4.7 1.3 0 2.6-.7 1.2-.7 1.9-.1 1.9s.6 1.1.1 2.9c-.4 1.5-.4 3.4 0 4.2.5.7.5 2 0 2.8-.4.8-.4 2.5.1 3.8.5 1.4.5 2.3-.1 2.3s-.5 1.1.1 2.7c.6 1.5.7 2.4.3 2.1-.4-.4-1.5-.3-2.5.3-1.3.7-1.9.6-1.9-.1 0-.8-.6-.8-2 0s-2 .8-2 0-.6-.8-2 0-2 .8-2 0c0-.7-.6-.8-1.7-.2-2 .9-6 .8-7-.2-.3-.3-1.2-.1-1.9.5-.8.7-1.4.7-1.9-.1-.4-.7-1.2-.7-2.6 0-1.3.8-1.9.7-1.9 0s-.6-.8-1.8-.1c-1.1.6-2.4.6-3.2.1-.9-.5-1.9-.5-2.6.1-.8.7-1.4.6-1.9-.1-.4-.7-1.2-.7-2.4 0-1 .5-2.1.7-2.4.3-1-.9-5.1-1-6.9-.1-1.2.6-1.8.5-1.8-.2 0-.8-.6-.8-2 0s-2 .8-2 0-.6-.8-2 0-2 .8-2 0c0-.6-.5-.8-1.1-.5-1.3.9-7.9 1.2-7.9.5 0-.3-1.1-.5-2.5-.5s-2.5.4-2.5.8-.9.3-1.9-.3c-1.3-.6-2.2-.7-2.6 0-.4.6-1.5.6-3 0-1.6-.6-2.5-.6-2.5.1 0 .6-.6.6-1.8 0-1-.5-2.4-.6-3.2-.1-.8.5-2.1.5-2.9.1-1.9-.8-5.3-.7-7 .3-.6.4-1.1.2-1.1-.4 0-.8-.6-.8-2 0s-2 .8-2 0-.6-.8-2 0-2 .8-2 0c0-.7-.6-.8-1.7-.2-2 .9-6 .8-7-.2-.3-.3-1.2-.1-1.9.5-.8.7-1.4.7-1.9-.1-.4-.7-1.2-.7-2.6 0-1.1.6-1.9.7-1.9.1 0-.5-1-.7-2.2-.3-2 .5-2.1.3-1-1 .9-1.2 1-1.8.2-2.3-.8-.5-.8-1 0-2 .8-.9.8-1.5 0-2-.7-.4-.7-1.2 0-2.6.8-1.3.7-1.9 0-1.9-.8 0-.8-.6 0-2s.8-2 0-2-.8-.6 0-2 .8-2 0-2-.8-.6 0-2 .8-2 0-2-.8-.6 0-2 .8-2 0-2-.8-.6 0-2 .8-2 0-2-.8-.6 0-2 .8-2 0-2-.8-.6 0-2 .8-2 0-2-.8-.6 0-2 .8-2 0-2-.8-.6 0-2 .8-2 0-2-.8-.6 0-2 .8-2 0-2-.8-.6 0-2 .8-2 0-2-.8-.6 0-2 .8-2 0-2-.8-.6 0-2 .8-2 0-2-.8-.6 0-2 .8-2 0-2-.8-.6 0-2 .8-2 0-2-.8-.6 0-2 .8-2 0-2-.8-.6 0-2 .8-2 0-2-.8-.6 0-2 .8-2 0-2-.8-.6 0-2 .8-2 0-2-.8-.6 0-2 .8-2 0-2-.8-.6 0-2 .8-2 0-2-.8-.6 0-2 .8-2 0-2-.8-.6 0-2 .8-2 0-2-.8-.6 0-2 .8-2 0-2-.8-.6 0-2c.8-1.5.8-2-.1-2s-.9-.3 0-1.4c.8-1 .9-1.6.1-2.1-.7-.4-.7-1.2 0-2.6.8-1.3.7-1.9 0-1.9-.8 0-.8-.6 0-2 .7-1.3.7-2 .1-2s-.8-.7-.4-1.6c.7-1.8 4.6-3.6 5.1-2.3.2.4 1.4.4 2.8-.1zM453.5 624c.5-.8 1-.8 2 0 .9.8 1.5.8 2 0 .4-.6 1.3-.7 2.3-.2 1.9.9 5.4.8 7.1-.2.6-.4 1.1-.2 1.1.4 0 .8.6.8 2 0s2-.8 2 0 .6.8 2 0 2-.8 2 0c0 .6.5.8 1.1.5 1.3-.9 7.9-1.2 7.9-.5 0 .3 1.1.5 2.5.5s2.5-.4 2.5-.8.9-.3 1.9.3c1.3.6 2.2.7 2.6 0 .4-.6 1.5-.6 3 0 1.6.6 2.5.6 2.5-.1 0-.6.6-.6 1.8 0 1 .6 2.4.6 3.2.1.8-.5 1.9-.6 2.5-.2 1.4.9 4.7.9 6.8-.1 1-.5 1.7-.4 1.7.3 0 .8.6.8 2 0s2-.8 2 0 .6.8 2 0 2-.8 2 0c0 .7.6.8 1.8.2 1.9-.9 5.9-.8 6.9.2.3.3 1.2.1 1.9-.5.8-.7 1.4-.7 1.9.1.4.7 1.2.7 2.6 0 1.2-.7 1.9-.7 1.9-.1 0 .7.9.7 2.5.1s2.6-.6 3.1.1c.4.7 1 .6 1.9-.1.9-.8 1.5-.8 2 0 .4.7 1.2.7 2.4 0 1-.5 2.1-.7 2.5-.3.9.9 7.6.9 7.6 0 0-.4.9-.3 2 .3 1.4.8 2 .8 2 0s.6-.8 2 0c1.2.6 2 .7 2 .1 0-1.5 4 0 5.1 2 .5 1.1.6 1.9.2 1.9-1 0-1 4.1 0 5.7.4.7.3 1.5-.3 1.8-.8.5-.7 1.2.2 2.2.7.9 1.1 1.9 1 2.2-1.9 3.2-2.2 4.1-1.2 4.1.8 0 .8.6 0 2s-.8 2 0 2 .8.6 0 2-.8 2 0 2 .8.6 0 2-.8 2 0 2 .8.6 0 2-.8 2 0 2 .8.6 0 2-.8 2 0 2 .8.6 0 2-.8 2 0 2 .8.6 0 2-.8 2 0 2 .8.6 0 2-.8 2 0 2 .8.6 0 2-.8 2 0 2 .8.6 0 2-.8 2 0 2 .8.6 0 2-.8 2 0 2 .8.6 0 2-.8 2 0 2 .8.6 0 2-.8 2 0 2 .8.6 0 2-.8 2 0 2c.7 0 .8.6.2 1.7-.9 1.9-.8 6 .1 7 .4.3.2 1.4-.4 2.4-.7 1.3-.6 1.9.1 1.9.8 0 .8.6 0 2-.6 1.2-.7 2-.1 2s.6 1.1.1 3-.5 3 .1 3 .6.7-.1 1.9c-.7 1.4-.7 2.2 0 2.6.7.5.8 1.1.1 1.9-.6.7-.6 1.7-.1 2.6.5.8.5 2.1-.1 3.2-.7 1.2-.6 1.8.1 1.8.8 0 .8.6 0 2s-.8 2 0 2c.7 0 .8.6.1 1.8-.6 1.1-.6 2.4 0 3.4s.6 1.9 0 2.3c-.6.3-.8 1.2-.5 1.9.6 1.7-3.4 2.6-6.4 1.5-1.2-.5-2.4-.4-2.7.1-.4.7-1.3.7-2.4 0-1-.5-2.1-.6-2.5-.3-.9.9-6.5.9-5.9.1.2-.5-.7-.4-2.1.2-1.7.6-2.6.6-2.6-.1 0-.6-.6-.6-1.8 0-1 .5-2.4.6-3.1.1-.8-.4-2.7-.4-4.2 0-1.6.5-3.1.5-3.4 0-.3-.5-1.6-.5-3 0-1.7.6-2.5.6-2.5-.1 0-.6-.4-.7-1-.4-1.5.9-8.9 1.2-8.4.3.3-.4-.6-.4-2 .2-1.8.6-2.6.6-2.6-.1s-.6-.7-1.7 0c-1.1.6-2.4.6-3.5 0-1.2-.6-2.5-.6-3.7.1-1.4.7-2.2.7-2.7-.1-.4-.7-1-.7-1.6-.1-.7.7-1.9.7-3.3.2-1.3-.5-2.5-.7-2.8-.4-.9.9-6.2 1.1-8.4.2-1.4-.4-2.3-.4-2.3.2 0 .6-.9.6-2.5 0-1.4-.5-2.5-.6-2.5-.2 0 .4-1.8.7-4 .7s-4-.3-4-.7c0-.4-1.1-.3-2.5.2-1.6.6-2.5.6-2.5-.1 0-.6-.6-.6-1.8 0-1 .5-2.4.6-3.2.1-.7-.4-2.3-.4-3.5 0-1.4.5-2.7.4-3.3-.2-.6-.6-1.2-.6-1.6.1-.5.8-1.3.8-2.7.1-1.2-.7-1.9-.7-1.9-.1 0 1.4-3.2.2-4.7-1.7-.9-1.1-1-1.9-.2-2.8.7-.8.7-1.4-.1-1.9-.7-.4-.7-1.2 0-2.5s.7-2.1 0-2.5c-.6-.4-.7-1.2-.1-2.3.5-.9.5-2.6 0-3.9-.5-1.4-.5-2.3.1-2.3.5 0 .7-.7.3-1.5-.8-2.3-.9-18.4-.1-17.8.5.2.4-.7-.2-2.1-.6-1.8-.6-2.6.1-2.6.6 0 .7-.5.3-1.1-.9-1.5-.8-11.4.1-12.8.3-.6.2-1.1-.4-1.1-.7 0-.7-.8-.1-2.5.6-1.6.6-2.5 0-2.5s-.6-.9 0-2.5.6-2.5-.1-2.5c-.6 0-.6-.7.1-1.9.7-1.3.7-2.2 0-2.6-.7-.4-.7-1.2 0-2.5s.7-2.1 0-2.5c-.7-.4-.7-1.3 0-2.6.7-1.2.7-1.9.1-1.9-.7 0-.7-.9-.1-2.5s.6-2.5 0-2.5-.6-.9 0-2.5.6-2.5-.1-2.5c-.6 0-.6-.7.1-1.9.7-1.3.7-2.2 0-2.6-.7-.4-.7-1.2 0-2.5s.7-2.1 0-2.5c-.7-.4-.7-1.3 0-2.6.6-1 .7-1.9.3-1.9-1 0-.8-6.3.2-7.9.3-.6.1-1.1-.5-1.1-.8 0-.8-.6 0-2s.8-2 0-2c-.7 0-.8-.6 0-1.9.6-1.3.6-2.1 0-2.3-.6-.2-.4-1.3.6-2.6 1.2-1.7 1.9-2 2.9-1.2s1.5.8 2 0zm191.5 0c0-.7.6-.8 1.9 0 1.3.7 2.2.7 2.6 0 .4-.6 1.3-.7 2.3-.2 1.9.9 5.4.8 7.1-.2.6-.4 1.1-.2 1.1.4 0 .8.6.8 2 0s2-.8 2 0 .6.8 2 0 2-.8 2 0c0 .6.5.8 1.1.5 1.3-.9 7.9-1.2 7.9-.5 0 .3 1.1.5 2.5.5s2.5-.4 2.5-.8.9-.3 1.9.3c1.3.6 2.2.7 2.6 0 .4-.6 1.5-.6 3 0 1.6.6 2.5.6 2.5-.1 0-.6.6-.6 1.8 0 1 .6 2.4.6 3.2.1.8-.5 1.9-.6 2.5-.2 1.4.9 4.7.9 6.8-.1 1-.5 1.7-.4 1.7.3 0 .8.6.8 2 0s2-.8 2 0 .6.8 2 0 2-.8 2 0c0 .7.6.8 1.8.2 1.9-.9 5.9-.8 6.9.2.3.3 1.2.1 1.9-.5.8-.7 1.4-.7 1.9.1.4.7 1.2.7 2.6 0 1.2-.7 1.9-.7 1.9-.1 0 .7.9.7 2.5.1s2.6-.6 3.1.1c.4.7 1 .6 1.9-.1.9-.8 1.5-.8 2 0 .4.7 1.2.7 2.4 0 1-.5 2.1-.7 2.5-.3.9.9 7.6.9 7.6 0 0-.4.9-.3 2 .3 1.3.7 2 .7 2 .1 0-.7.9-.7 2.6-.1 1.4.6 2.3.7 2.1.2-.3-.4.5-.7 1.8-.7s2.2.2 2 .5c-.2.3 0 1.2.5 2 .5.9.5 1.9-.1 2.6-.7.8-.6 1.4.1 1.9.7.4.7 1.2 0 2.5s-.7 2.1 0 2.5c.6.4.7 1.2.1 2.3-.5.9-.5 2.6 0 3.9.5 1.4.5 2.3-.1 2.3-.5 0-.7.7-.3 1.5.8 2.3.9 18.4.1 17.8-.5-.2-.4.7.2 2.1.6 1.6.6 2.6 0 2.6-.5 0-.7.7-.3 1.5.8 2.3.9 18.4.1 17.8-.5-.2-.4.7.2 2.1.6 1.6.6 2.6 0 2.6-.5 0-.7.7-.3 1.5.8 2.3.9 18.4.1 17.8-.5-.2-.4.7.2 2.1.6 1.6.6 2.6 0 2.6-.5 0-.7.7-.3 1.5.8 2.3.9 18.4.1 17.8-.5-.2-.4.7.2 2.1.6 1.6.6 2.6 0 2.6s-.6.9-.1 2.2c.5 1.3.5 3.3 0 4.5-.5 1.4-.5 2.3.1 2.3.5 0 .7.6.4 1.4-.7 1.7-4.4 2.5-7.2 1.5-1.2-.5-2.4-.4-2.7.1-.4.7-1.3.7-2.4 0-1-.5-2.1-.6-2.5-.3-.9.9-6.5.9-5.9.1.2-.5-.7-.4-2.1.2-1.7.6-2.6.6-2.6-.1 0-.6-.6-.6-1.8 0-1 .5-2.4.6-3.1.1-.8-.4-2.7-.4-4.2 0-1.6.5-3.1.5-3.4 0-.3-.5-1.6-.5-3 0-1.7.6-2.5.6-2.5-.1 0-.6-.4-.7-1-.4-1.5.9-8.9 1.2-8.4.3.3-.4-.6-.4-2 .2-1.7.6-2.6.6-2.6-.1 0-.6-.6-.6-1.8 0-1 .5-2.4.6-3.1.1-.8-.4-2.7-.4-4.2 0-1.6.5-3.1.5-3.4 0-.3-.5-1.6-.5-3 0-1.7.6-2.5.6-2.5-.1 0-.6-.4-.7-1-.4-1.5.9-8.9 1.2-8.4.3.3-.4-.6-.4-2 .2-1.7.6-2.6.6-2.6-.1 0-.6-.6-.6-1.8 0-1 .5-2.4.6-3.1.1-.8-.4-2.7-.4-4.2 0-1.6.5-3.1.5-3.4 0-.3-.5-1.6-.5-3 0-1.7.6-2.5.6-2.5-.1 0-.6-.4-.7-1-.4-1.5.9-8.9 1.2-8.4.3.3-.4-.6-.4-2 .2-1.4.5-2.6.6-2.6.2 0-1.2-4-.9-4 .3-.1.5-1-.1-2-1.4-1.4-1.6-1.7-2.7-1-3.6.5-.6.7-1.4.5-1.7-.9-.9-1.1-8.2-.3-10.6.4-1.2.4-2.2 0-2.2s-.7-1.1-.7-2.5.3-2.5.7-2.5c.4 0 .4-1-.1-2.2-.4-1.2-.5-3.7-.1-5.5.5-1.9.4-3.3-.1-3.3-.6 0-.5-.8.1-1.9.7-1.4.7-2.2 0-2.6-.7-.5-.8-1.1-.1-1.9.6-.7.6-1.7.1-2.6-.5-.8-.5-2.1.1-3.2.7-1.2.6-1.8-.1-1.8-.8 0-.8-.6 0-2 .6-1.2.7-2 .1-2s-.6-1.1-.1-3 .5-3-.1-3-.6-.7.1-1.9c.7-1.4.7-2.2 0-2.6-.7-.5-.8-1.1-.1-1.9.6-.7.6-1.7.1-2.6-.5-.8-.5-2.1.1-3.2.7-1.2.6-1.8-.1-1.8-.8 0-.8-.6 0-2 .6-1.2.7-2 .1-2s-.6-1.1-.1-3 .5-3-.1-3-.6-.7.1-1.9c.7-1.4.7-2.2 0-2.6-.7-.5-.8-1.1-.1-1.9.6-.7.6-1.7.1-2.6-.5-.8-.5-2.1.1-3.2.7-1.2.6-1.8-.1-1.8-.8 0-.8-.6 0-2 .6-1.2.7-2 .1-2s-.6-1.1-.1-3c.5-1.7.5-3 .2-3-.9 0-.7-6.4.3-7.9.3-.6.1-1.1-.5-1.1-.8 0-.8-.6 0-2s.8-2 0-2-.8-.6 0-2c.7-1.3.7-2 .1-2-.7 0-.7-.9.1-2.5.9-2 1.4-2.2 2.9-1.4 1.3.7 1.9.6 1.9-.1zM3.8 207.8l-3.8.3V1104h192.2l-.3-3.4c-.2-1.9-.1-3.8.3-4.1.3-.3.2-2.1-.2-3.9-.4-1.9-.4-4 0-4.6.4-.7.4-2.5 0-4s-.4-3.3 0-4c.4-.7.4-2.4 0-3.9-.4-1.4-.4-3.5 0-4.6.4-1.1.4-3.1.1-4.5-.4-1.4-.4-4.3-.1-6.5.3-2.2.2-5.7-.1-7.8-.4-2-.3-3.9.1-4.2.4-.3.5-2.2.1-4.2-.3-2.1-.4-5.6-.1-7.8.3-2.2.3-5.6-.1-7.6-.3-1.9-.3-4.4.1-5.4.4-1.1.4-3.3.1-5-.4-1.6-.4-4.6-.1-6.5.3-1.9.3-5.2-.1-7.3-.3-2-.3-3.9.1-4.2.4-.3.5-2.2.1-4.2-.3-2.1-.4-5.6-.1-7.8.3-2.2.2-5.7-.1-7.8-.4-2-.3-3.9.1-4.2.4-.3.4-2.2 0-4.3-.3-2.1-.3-4.7 0-5.8.4-1 .4-2.8 0-4-.5-1.1-.5-2.7 0-3.4.5-.7.5-2.3.1-3.4-.4-1.2-.4-4.1-.1-6.6.3-2.5.2-6.4-.1-8.8-.3-2.3-.3-4.2.2-4.2.4 0 .4-1.5 0-3.3-.3-1.7-.4-5.2-.1-7.7.3-2.5.2-6.4-.1-8.8-.3-2.3-.3-4.2.2-4.2.4 0 .4-1.5 0-3.3-.4-1.7-.5-4.1-.3-5.3.3-2.1.5-2.1 47.8-2.1 26.1 0 47.7-.2 47.9-.5.3-.3.5-4.3.5-11.1v-3.2-2.8c0-.6.1-8.5.2-17.5.2-8.9 0-16.2-.4-16.2s-.3-1.3.2-3 .5-3.2 0-3.5c-.5-.3-.5-1.6 0-3 .5-1.3.6-2.7.1-2.9-.4-.3-.5-2.6-.1-5 .4-2.5.3-5.1-.1-5.8-.4-.6-.4-1.9.1-2.8.5-.9.5-2.2 0-3-.4-.7-.6-1.9-.3-2.7.8-2.1.9-32.3.1-32.3-.4 0-.3-1.3.2-3s.5-3.2 0-3.5c-.5-.3-.5-1.6 0-3 .5-1.3.6-2.6.2-2.9-.9-.5-.6-8.1.3-9.5.3-.5.1-1.2-.4-1.5-.6-.4-.6-1.8-.1-3.6.5-1.7.5-3 .1-3-.5 0-.5-1.8-.1-4s.4-4-.1-4c-.4 0-.4-1.4.1-3 .5-1.9.5-3-.1-3s-.7-.5-.3-1.1c.9-1.4.9-10.3 0-11.7-.3-.6-.2-1.3.3-1.7.7-.3.7-1.5.1-3s-.6-2.7 0-3c.6-.3.6-1.5 0-3s-.6-2.7 0-3c.6-.3.6-1.5 0-3s-.6-2.7 0-3c.6-.3.6-1.5 0-3s-.6-2.7 0-3c.6-.3.6-1.5 0-3s-.6-2.7 0-3c.6-.3.6-1.5 0-3s-.6-2.7 0-3c.6-.3.6-1.5 0-3s-.6-2.7 0-3c.6-.3.6-1.5 0-3s-.6-2.7 0-3c.5-.3.6-1.6.2-2.8-.9-2.4-.8-5.6.1-8.1.3-.8.2-1.8-.3-2.1-.5-.3-.5-1.8 0-3.5s.5-3 .1-3c-.5 0-.5-1.8-.1-4s.4-4-.1-4c-.4 0-.4-1.4.1-3 .5-1.9.5-3-.1-3s-.7-.5-.4-1c.9-1.4 1-10.8.2-11.6-.3-.3-.2-1.7.3-3 .6-1.4.6-2.6-.1-2.9-.5-.4-.6-1.1-.3-1.7.8-1.3.8-33.3 0-34.6-.3-.6-.2-1.3.3-1.7.7-.3.7-1.5.1-3s-.6-2.7 0-3c.5-.3.6-1.6.2-2.8-.9-2.4-.8-5.6.1-8.1.3-.8.2-1.8-.3-2.1-.5-.3-.5-1.8 0-3.5s.5-3 .1-3c-.5 0-.5-1.8-.1-4s.4-4-.1-4c-.4 0-.4-1.4.1-3 .5-1.9.5-3-.1-3s-.7-.5-.3-1.1c.9-1.4.9-10.3 0-11.7-.3-.6-.2-1.3.3-1.7.7-.3.7-1.5.1-3s-.6-2.7 0-3c.6-.3.6-1.5 0-3s-.6-2.7 0-3c.6-.3.6-1.5 0-3s-.6-2.7 0-3c.6-.3.6-1.5 0-3s-.6-2.7 0-3c.6-.3.6-1.5 0-3s-.6-2.7 0-3c.6-.3.6-1.5 0-3s-.6-2.7 0-3c.6-.3.6-1.5 0-3s-.6-2.7 0-3c.6-.3.6-1.5 0-3s-.6-2.7 0-3c.5-.3.6-1.6.2-2.8-.9-2.4-.8-5.6.1-8.1.3-.8.2-1.8-.3-2.1-.5-.3-.5-1.8 0-3.5s.5-3 .1-3c-.5 0-.5-1.8-.1-4s.4-4-.1-4c-.4 0-.4-1.4.1-3 .5-1.9.5-3-.1-3s-.7-.5-.4-1c.9-1.4 1-10.8.2-11.6-.3-.3-.2-1.7.3-3 .6-1.4.6-2.6-.1-2.9-.5-.4-.6-1.1-.3-1.7.3-.5.6-8.3.6-17.3s-.3-16.8-.6-17.3c-.3-.6-.2-1.3.3-1.7.7-.3.7-1.5.1-3s-.6-2.7 0-3c.5-.3.6-1.6.2-2.8-.9-2.4-.8-5.6.1-8.1.3-.8.2-1.8-.3-2.1-.5-.3-.5-1.8 0-3.5s.5-3 .1-3c-.5 0-.5-1.8-.1-4s.4-4-.1-4c-.4 0-.4-1.4.1-3 .5-1.9.5-3-.1-3s-.7-.5-.3-1.1c.9-1.4.9-10.3 0-11.7-.3-.6-.2-1.3.3-1.7.7-.3.7-1.5.1-3s-.6-2.7 0-3c.6-.3.6-1.5 0-3s-.6-2.7 0-3c.6-.3.6-1.5 0-3s-.6-2.7 0-3c.6-.3.6-1.5 0-3s-.6-2.7 0-3c.6-.3.6-1.5 0-3s-.6-2.7 0-3c.6-.3.6-1.5 0-3s-.6-2.7 0-3c.6-.3.6-1.5 0-3s-.6-2.7 0-3c.6-.3.6-1.5 0-3s-.6-2.7 0-3c.5-.3.6-1.6.2-2.8-.9-2.4-.8-5.6.1-8.1.3-.8.2-1.8-.3-2.1-.5-.3-.5-1.8 0-3.5s.5-3 .1-3c-.5 0-.5-1.8-.1-4s.4-4-.1-4c-.4 0-.4-1.4.1-3 .5-1.8.5-3 0-3s-.6-1-.2-2.3c.4-1.2.6-3.7.4-5.5-.1-1.7-.2-3.9-.2-4.7 0-3.2 0-5.6-.1-17 0-5 0-9.6.1-10.3v-2.7-3.3c0-2-.1-5.2-.2-7-.1-1.1-3.6-1.8-6.3-1.2-.8.1-14.7.1-21-.1h-6c-6.3.2-19.1.1-32 0-5.5-.1-10.7-.1-11.5 0-.8.1-3.5.1-6 0s-4.9-.1-5.5-.1c-.5 0-5.7.1-11.5.1h-59c-6.9-.1-13.1-.1-13.7 0-2.6.2-4 .2-15.8.2-19.1-.1-27.6-.1-33 0h-6c-.5 0-5.3 0-10.5-.1-5.2 0-14 0-19.5-.1s-10.7-.1-11.5 0c-2.4.2-10.3 0-10.9-.2-.3-.1-2.3-.1-4.3.1zm102.6 96.5c.5-.5 10.9-.7 13.1-.3.6.1 1.5.2 2 0 .6-.1 3.5-.1 6.5 0h7c.8 0 2.6 0 4 .1 1.4 0 3.7.1 5.3 0 1.5 0 3.8 0 5.2-.1h4.3c.9 0 4.4 0 7.7.1h7.3c.6 0 3.7-.1 6.7-.1h10.3c5.5-.1 16.2-.1 19.5.1h3.5c1.2-.1 3-.1 4 0 .9 0 2.2 0 2.7-.1.6-.1 2.7-.2 4.9-.1 3.5.1 3.8.3 3.2 2.5-.3 1.4-.2 2.7.4 3.1.5.3.6 1.5 0 2.9-.4 1.2-.4 2.9 0 3.6.5.8.5 2.1.1 2.9-.4.9-.5 2.9-.1 4.6.3 1.6.3 4.5-.1 6.3-.4 1.7-.3 3.4.2 3.7.4.3.4 1.6-.1 2.9-.4 1.2-.5 2.9 0 3.6.4.7.5 2.3 0 3.4-.4 1.1-.4 3.2-.1 4.6.4 1.4.6 3.4.5 4.5-.3 2.6-.5 6.6-.3 8.5v4c-.1 1.4-.1 3.2 0 4v4.2c-.1 1.6-.1 4-.2 5.5 0 1.6-.1 5.8-.2 9.6-.1 3.7.1 6.7.5 6.7s.3 1.3-.2 2.9c-.4 1.5-.4 3.4 0 4.1.5.7.5 2.3 0 3.5-.5 1.2-.5 2.7 0 3.5.4.7.4 2.4.1 3.9-.4 1.4-.4 4.3-.1 6.4.4 2 .4 4 0 4.2-.4.3-.4 2 0 3.9.7 3.2.5 3.6-1.9 4.4-1.4.5-3.5.6-4.6.2-1.1-.4-2.5-.3-3.2.2-.7.5-1.4.5-1.7-.1-.4-.6-1.5-.7-3-.1-1.2.4-2.9.4-3.6 0-.8-.5-2.2-.4-3.2.1-1.2.6-1.8.6-1.8 0s-1.1-.6-3-.1c-1.6.5-3 .6-3 .2 0-.4-1.6-.7-3.5-.7s-3.5.3-3.5.7c0 .4-1.3.3-3-.2-1.8-.5-3-.5-3 0 0 .6-1.2.5-2.7-.1-1.6-.6-3-1-3.3-.9-3.7 1.5-4.8 1.6-6.5 1-1.1-.4-2.5-.3-3.2.2-.7.5-1.4.5-1.7-.1-.4-.6-1.8-.6-3.5-.1-1.5.4-3.4.4-4.2 0-.7-.5-2-.5-2.8 0-.8.4-2.5.4-3.8-.1-1.4-.5-2.3-.5-2.3.1 0 .5-1.2.5-2.8 0-1.6-.4-3.6-.4-4.5.2-1.1.6-1.7.5-1.7-.1 0-.7-.8-.7-2.5-.1-1.5.6-2.6.6-3-.1-.4-.5-1-.7-1.5-.4-1.3.8-19.9.9-20.7.2-.3-.4-1.4-.2-2.4.4-1.2.6-1.9.6-1.9 0s-1.1-.6-3-.1c-1.6.5-3 .5-3 .1 0-.5-1.1-.7-2.5-.5-2.4.2-2.6-.1-2.5-3.9.1-12.4.2-15.1.6-15.8.2-.4.1-1-.4-1.3-.5-.3-.6-2.7-.3-5.3.3-2.6.4-7.1.1-9.8-.3-2.8-.3-8.2 0-12 .3-3.9.3-9.4 0-12.3-.3-2.9-.4-5.5-.2-5.7.7-.6.8-10.5.1-10.5-.3 0-.2-2.5.1-5.6.3-3 .3-5.7 0-5.9-.3-.2-.3-2.9 0-6s.2-5.8-.2-6.1c-.5-.3-.6-.9-.3-1.4.3-.4.5-6.5.6-13.4 0-7 .3-12.5.7-12.2.4.2 1.6 0 2.7-.4s3-.4 4.1.1c1.2.4 2.5.5 2.8.2zm-5 191.7c1.3-.4 2.9-.4 3.6 0 .8.5 1.9.5 2.5 0 .6-.5 1.7-.5 2.5 0s2.1.5 3.1-.1c1.2-.6 2-.5 2.4.1.4.6 1.1.7 1.8.3 1.4-.9 5.7-1.1 5.7-.2 0 .3 1.8.3 3.9-.1 2.1-.4 4.6-.3 5.4.2.9.5 1.8.4 2.2-.1.4-.7 1.5-.7 3-.1s2.5.6 2.5 0c0-.5 1.2-.5 3 0 1.9.5 3 .5 3-.1s.8-.5 2 .1c1.1.6 2 .7 2 .3 0-.4 1.1-.8 2.5-.8s2.5.3 2.5.6c0 .4 1.8.3 3.9-.1 2.1-.4 4.6-.3 5.4.2.9.5 1.8.4 2.2-.1.4-.7 1.5-.7 3-.1s2.5.6 2.5 0c0-.5 1.2-.5 3 0 1.9.5 3 .5 3-.1s.8-.5 2 .1c1.1.6 2 .7 2 .3 0-.4 1.1-.8 2.5-.8s2.5.3 2.5.6c0 .4 1.8.3 3.9-.1 2.1-.4 4.6-.3 5.4.2.9.5 1.8.4 2.2-.1.4-.7 1.5-.7 3-.1s2.5.6 2.5 0c0-.5 1.2-.5 3 0 1.9.5 3 .5 3-.1s.8-.5 2 .1c1.1.6 2 .7 2 .3 0-.7 2.2-.7 8.8-.1.9.1 1.2 1 .9 2.5-.2 1.3-.1 2.6.4 2.9.5.2.4 1.5-.1 2.8-.4 1.2-.4 2.9 0 3.6.5.8.5 2.1.1 2.9-.4.9-.5 2.9-.1 4.6.3 1.6.3 4.5-.1 6.3-.4 1.7-.3 3.4.2 3.7.4.3.4 1.6-.1 2.9-.4 1.2-.5 2.9 0 3.6.4.7.5 2.3 0 3.4-.4 1.1-.4 3.2-.1 4.6.4 1.4.6 3.4.5 4.5-.3 2.6-.5 6.6-.3 8.5v4c-.1 1.4-.1 3.2 0 4v4.2c-.1 1.6-.1 4-.2 5.5 0 1.6-.1 5.8-.2 9.6-.1 3.7.1 6.7.5 6.7s.3 1.3-.2 2.9c-.4 1.5-.4 3.4 0 4.1.4.7.4 2.6 0 4.1-.5 1.6-.5 3.1 0 3.4.4.2.4 1.9.1 3.7-.4 1.8-.4 4.8 0 6.6.4 1.7.3 3.4-.1 3.7-.4.3-.4 2 0 3.9.6 3 .5 3.5-1.6 4.5-1.6.7-2.4.7-2.4 0 0-.6-.7-.6-2 .1-1.4.8-2 .8-2 0s-.6-.8-2 0-2 .8-2 0c0-.6-.5-.8-1.1-.5-1.6 1-6.9 1.2-7.5.3-.3-.4-1.4-.4-2.4.2-1.3.7-2.1.7-2.5 0-.5-.7-1.1-.8-1.9-.1-.7.6-1.7.6-2.6.1-.8-.5-2.1-.5-3.2.1-1.2.7-1.8.6-1.8-.1s-.6-.8-1.9 0c-1.3.7-2.2.7-2.6 0-.4-.7-1.2-.7-2.5 0-1 .6-2.1.6-2.4.1-.6-.9-4.8-.7-6.5.4-.6.3-1.1.1-1.1-.5 0-.8-.6-.8-2 0s-2 .8-2 0-.6-.8-2 0-2 .8-2 0c0-.7-.7-.8-1.7-.3-2.1 1-5.4 1-6.8.1-.6-.4-1.7-.3-2.5.2s-2.2.5-3.2-.1c-1.2-.6-1.8-.6-1.8 0 0 .7-.9.7-2.5.1-1.5-.6-2.6-.6-3 0-.4.7-1.3.6-2.6 0-1-.6-1.9-.7-1.9-.3 0 .4-1.1.8-2.5.8s-2.5-.3-2.5-.6-2-.3-4.5.1-4.8.3-5.1-.2c-.3-.4-1.3-.4-2.2.1-1.1.6-2.4.6-3.5 0-1.1-.7-1.7-.7-1.7 0s-.8.7-2.5.1c-1.5-.6-2.6-.6-3 0-.4.7-1.3.6-2.6 0-1.2-.7-1.9-.7-1.9-.1 0 .7-.9.7-2.5.1s-2.5-.6-2.5.1c0 .6-.6.6-1.9 0-1-.6-2.1-.7-2.5-.3-.4.3-.7-1.4-.7-3.8.1-2.5.1-6.9.1-9.9.1-3 .3-5.8.6-6.2.2-.4 0-1-.6-1.4-.6-.4-.8-1.1-.5-1.6.4-.5.6-4.6.5-9.2V576c0-4.1 0-10.4-.1-14 0-3.6-.1-7.1 0-7.8 0-1.7 0-26-.1-27.5 0-.6.1-2.6.1-4.2.1-1.7.2-6.3.1-10.3 0-4.1.2-7.8.6-8.3.3-.5.1-.9-.4-.9-1.2 0-.2-6.3 1.2-7.2.6-.4 1.2-.3 1.4.2.2.5 1.3.5 2.6 0zm-.1 192.3c1-1 5.7-1 5.7 0 0 .4.6.5 1.2.1 1.8-1.1 8.1-1.1 9.6 0 .7.5 1.2.5 1.2-.1 0-1.1 2.9-1.1 4.8.1.6.4 1.2.4 1.2-.1 0-.4 1.6-.8 3.5-.8s3.5.4 3.5.8c0 .5.6.5 1.2.1 1.8-1.1 4.8-1.2 4.8-.2 0 .5.5.6 1.2.2 1.4-.9 7.6-1 8.4-.1.4.4 1.2.4 1.7 0 1.6-1 5.7-1 5.7 0 0 .4.5.5 1.2.1 1.7-1.1 9.1-1.1 10.6 0 .7.5 1.2.5 1.2-.1 0-1.1 2.9-1.1 4.7 0 .6.4 1.4.3 1.7-.1.6-1 3.6-.9 5.4.2.6.4 1.2.3 1.2-.2 0-1 3-.9 4.8.2.6.4 1.2.4 1.2-.1 0-1 9.1-.9 10.8.1.7.4 1.2.3 1.2-.2 0-1 3-.9 4.8.2.6.4 1.2.3 1.2-.2 0-1 3-.9 4.8.2.6.4 1.2.3 1.2-.1 0-1 7.2-.9 8.9.1.6.4 1.1.2 1.1-.5 0-.8.4-.8 1.6.2.8.7 1.3 2.1 1.1 3.1-.3 1-.1 2 .3 2.3.5.3.5 1.9 0 3.5-.5 1.8-.5 3.2.1 3.5.5.4.5 1.4.1 2.3-.5.9-.6 3-.2 4.7.3 1.6.3 4.5-.1 6.3-.4 1.7-.3 3.4.2 3.7.4.3.4 1.6-.1 2.9-.4 1.2-.5 2.9 0 3.6.4.7.5 2.3 0 3.4-.4 1.1-.4 3.2-.1 4.6.4 1.4.6 3.4.5 4.5-.3 2.6-.5 6.6-.3 8.5v4c-.1 1.4-.1 3.2 0 4v4.2c-.1 1.6-.1 4-.2 5.5-.1 3.1 0 7 .1 13.8.1 2.4-.1 4.9-.5 5.5-.3.5-.2 1 .4 1 .6 0 .6 1.1.1 3-.5 1.7-.5 3.2 0 3.5.5.3.5 1.6.1 2.8-.5 1.2-.5 3.2 0 4.4.5 1.3.4 2.5-.1 2.8-.5.3-.5 1.8 0 3.5s.5 3 .1 3c-.5 0-.5 1.8-.1 3.9.7 3.9-.2 7.2-1.6 5.8-.4-.4-1.3-.2-2 .4-.8.7-1.4.7-1.8 0-.4-.7-1.5-.7-3-.1-1.3.5-2.6.6-2.9.4-1-1-5.7-1.1-5.7-.2 0 .5-.5.6-1.1.3-1.7-1.1-5.9-1.3-5.9-.3 0 .5-.6.6-1.2.1-1.6-1-3.6-1-7-.1-1.6.3-2.8.3-2.8-.1s-1.9-.6-4.2-.4c-2.4.2-4.9.3-5.5.3h-11.5c-.7 0-2.4-.1-3.8-.3-1.4-.2-3.5 0-4.7.5-1.3.4-2.3.4-2.3 0 0-.5-1.9-.7-4.2-.5-2.4.2-4.9.3-5.5.3h-8.8c-3.4 0-4.6 0-7.2-.1-1.6-.1-4.1-.1-5.8 0-1.6.1-3.8.1-4.7.1h-3c-.7 0-2.4-.1-3.8-.3-1.4-.2-3.3.1-4.2.5-1 .5-1.8.5-1.8 0s-1.2-.7-2.7-.5c-7.3 1.1-8.8.3-9.1-4.8-.3-6.3-.2-14.2.4-15 .2-.4.1-1-.4-1.3-.5-.3-.6-2.7-.3-5.3.3-2.6.4-7.1.1-9.8-.3-2.8-.3-8.2 0-12 .3-3.9.3-9.4 0-12.3-.3-2.9-.4-5.5-.2-5.7.7-.6.8-10.5.1-10.5-.3 0-.2-2.5.1-5.6.3-3 .3-5.7 0-5.9-.3-.2-.3-2.9 0-6s.2-5.8-.2-6.1c-.5-.3-.6-.9-.3-1.4.3-.5.6-6.2.6-12.7 0-11.8.9-15.4 3.4-13.3.6.5 1.5.7 1.8.3zM942.7 207.7c-.4.3-3.8.5-7.6.4-6.1-.2-6.9 0-7.4 1.8-.3 1.2-.1 2.3.4 2.6.4.3.4 1.6-.1 2.9-.5 1.3-.7 2.6-.4 2.9.9.9 1.1 6.2.3 8.4-.5 1.2-.4 2.5.1 2.8.5.3.5 1.8 0 3.5s-.5 3-.1 3c.5 0 .5 1.8.1 4s-.4 4 .1 4c.4 0 .4 1.3-.1 3-.5 1.8-.5 3 0 3 .6 0 .6 1 0 2.5s-.6 2.7 0 3c.6.3.6 1.5 0 3-.5 1.4-.5 2.7 0 3 .5.3.5 1.8 0 3.5s-.5 3-.1 3c.5 0 .5 1.8.1 4s-.4 4 .1 4c.4 0 .4 1.3-.1 3-.5 1.9-.5 3 .1 3s.7.5.3 1.1c-.9 1.4-.9 10.3 0 11.7.3.6.2 1.3-.3 1.7-.7.3-.7 1.5-.1 3s.6 2.7 0 3c-.6.3-.6 1.5 0 3s.6 2.7 0 3c-.6.3-.6 1.5 0 3s.6 2.7 0 3c-.6.3-.6 1.5 0 3s.6 2.7 0 3c-.6.3-.6 1.5 0 3s.6 2.7 0 3c-.6.3-.6 1.5 0 3s.6 2.7 0 3c-.6.3-.6 1.5 0 3s.6 2.7 0 3c-.6.3-.6 1.5 0 3s.6 2.7 0 3c-.5.3-.6 1.6-.2 2.8.9 2.4.8 5.6-.1 8.1-.3.8-.2 1.8.3 2.1.5.3.5 1.8 0 3.5s-.5 3-.1 3c.5 0 .5 1.8.1 4s-.4 4 .1 4c.4 0 .4 1.3-.1 3-.5 1.8-.5 3 0 3 .6 0 .6 1 0 2.5s-.6 2.7 0 3c.6.3.6 1.5 0 3-.5 1.4-.5 2.7 0 3 .5.3.5 1.8 0 3.5s-.5 3-.1 3c.5 0 .5 1.8.1 4s-.4 4 .1 4c.4 0 .4 1.3-.1 3-.5 1.9-.5 3 .1 3s.7.5.3 1.1c-.9 1.4-.9 10.3 0 11.7.3.6.2 1.3-.3 1.7-.7.3-.7 1.5-.1 3s.6 2.7 0 3c-.6.3-.6 1.5 0 3s.6 2.7 0 3c-.6.3-.6 1.5 0 3s.6 2.7 0 3c-.6.3-.6 1.5 0 3s.6 2.7 0 3c-.6.3-.6 1.5 0 3s.6 2.7 0 3c-.6.3-.6 1.5 0 3s.6 2.7 0 3c-.6.3-.6 1.5 0 3s.6 2.7 0 3c-.6.3-.6 1.5 0 3s.6 2.7 0 3c-.5.3-.6 1.6-.2 2.8.9 2.4.8 5.6-.1 8.1-.3.8-.2 1.8.3 2.1.5.3.5 1.8 0 3.5s-.5 3-.1 3c.5 0 .5 1.8.1 4s-.4 4 .1 4c.4 0 .4 1.3-.1 3-.5 1.8-.5 3 0 3 .6 0 .6 1 0 2.5s-.6 2.7 0 3c.6.3.6 1.5 0 3-.5 1.4-.5 2.7 0 3 .5.3.5 1.8 0 3.5s-.5 3-.1 3c.5 0 .5 1.8.1 4s-.4 4 .1 4c.4 0 .4 1.3-.1 3-.5 1.9-.5 3 .1 3s.7.5.3 1.1c-.9 1.4-.9 10.3 0 11.7.3.6.2 1.3-.3 1.7-.7.3-.7 1.5-.1 3s.6 2.7 0 3c-.6.3-.6 1.5 0 3s.6 2.7 0 3c-.6.3-.6 1.5 0 3s.6 2.7 0 3c-.6.3-.6 1.5 0 3s.6 2.7 0 3c-.6.3-.6 1.5 0 3s.6 2.7 0 3c-.6.3-.6 1.5 0 3s.6 2.7 0 3c-.6.3-.6 1.5 0 3s.6 2.7 0 3c-.6.3-.6 1.5 0 3s.6 2.7 0 3c-.5.3-.6 1.6-.2 2.8.9 2.4.8 5.6-.1 8.1-.3.8-.2 1.8.3 2.1.5.3.5 1.8 0 3.5s-.5 3-.1 3c.5 0 .5 1.8.1 4s-.4 4 .1 4c.4 0 .4 1.3-.1 3-.5 1.8-.5 3 0 3 .6 0 .6 1 0 2.5s-.6 2.7 0 3c.6.3.6 1.5 0 3-.5 1.4-.5 2.7 0 3 .5.3.5 1.8 0 3.5s-.5 3-.1 3c.5 0 .5 1.8.1 4s-.4 4 .1 4c.4 0 .4 1.3-.1 3-.5 1.9-.5 3 .1 3s.7.5.3 1.1c-.9 1.4-.9 10.3 0 11.7.3.6.2 1.3-.3 1.7-.7.3-.7 1.5-.1 3s.6 2.7 0 3c-.6.3-.6 1.5 0 3s.6 2.7 0 3c-.6.3-.6 1.5 0 3s.6 2.7 0 3c-.6.3-.6 1.5 0 3s.6 2.7 0 3c-.6.3-.6 1.5 0 3s.6 2.7 0 3c-.6.3-.6 1.5 0 3s.6 2.7 0 3c-.6.3-.6 1.5 0 3s.6 2.7 0 3c-.6.3-.6 1.5 0 3s.6 2.7 0 3c-.5.3-.6 1.6-.2 2.8.9 2.4.8 5.6-.1 8.1-.3.8-.2 1.8.3 2.1.5.3.5 1.8 0 3.5s-.5 3-.1 3c.5 0 .5 1.8.1 4s-.4 4 .1 4c.4 0 .4 1.3-.1 3-.5 1.8-.5 3 0 3 .6 0 .6 1 0 2.5s-.6 2.7 0 3c.6.3.6 1.5 0 3-.5 1.4-.5 2.7 0 3 .5.3.5 1.8 0 3.5s-.5 3-.1 3c.5 0 .5 1.8.1 4s-.4 4 .1 4c.4 0 .4 1.3-.1 3-.5 1.9-.5 3 .1 3s.7.5.3 1.1c-.9 1.4-.9 10.3 0 11.7.3.6.2 1.3-.3 1.7-.7.3-.7 1.5-.1 3s.6 2.7 0 3c-.6.3-.6 1.5 0 3s.6 2.7 0 3c-.6.3-.6 1.5 0 3s.6 2.7 0 3c-.6.3-.6 1.5 0 3s.6 2.7 0 3c-.6.3-.6 1.5 0 3s.6 2.7 0 3c-.6.3-.6 1.5 0 3s.6 2.7 0 3c-.6.3-.6 1.5 0 3s.6 2.7 0 3c-.6.3-.6 1.5 0 3s.6 2.7 0 3c-.5.3-.6 1.6-.2 2.8.9 2.4.8 5.6-.1 8.1-.3.8-.2 1.8.3 2.1.5.3.5 1.8 0 3.5s-.5 3-.1 3c.5 0 .5 1.8.1 4s-.4 4 .1 4c.4 0 .4 1.3-.1 3-.5 1.8-.5 3 0 3 .6 0 .6 1 .1 2.3-.5 1.3-.6 2.9-.1 3.6.4.7.5 2.2.3 3.2-.4 1.3 0 1.9 1.3 2 1.1 0 22.6.1 47.9.1 45.9.1 46 .1 46.6 2.2.3 1.2.2 3.6-.2 5.4-.4 1.7-.3 3.4.1 3.7.4.3.4 2.1 0 4s-.4 3.7 0 4c.4.3.4 2.1 0 4s-.4 3.7 0 4c.4.3.4 2.1 0 4s-.4 3.7 0 4c.4.3.4 2.1 0 4s-.4 3.7 0 4c.4.3.4 2.1 0 4s-.4 3.7 0 4c.4.3.4 2.1 0 4s-.4 3.7 0 4c.4.3.4 2.1 0 4s-.4 3.7 0 4c.4.3.4 2.1 0 4s-.4 3.7 0 4c.4.3.4 2.1 0 4s-.4 3.7 0 4c.4.3.4 2.1 0 4s-.4 3.7 0 4c.4.3.4 2.1 0 4s-.4 3.7 0 4c.4.3.4 2.1 0 4s-.4 3.7 0 4c.4.3.4 2.1 0 4s-.4 3.7.1 4c.4.3.6 1.1.3 1.9-.7 1.9-1 14.6-.3 14.6.3 0 .3 1.9-.1 4.3-.3 2.4-.3 5.5.1 6.9.4 1.4.3 3.1-.1 3.8-.4.7-.4 2.7 0 4.5.4 1.8.4 3.9 0 4.6-.5.7-.6 1.8-.3 2.4.7 1.9.9 11.5.2 11.5-.3 0-.3 2 .1 4.5s.3 4.5-.1 4.5c-.5 0-.6.6-.4 1.2.8 1.9 1.1 13.8.4 13.8-.3 0-.3 1.9 0 4.2l.6 4.3 95.8.3 95.7.2V208l-2.2.1c-2.4 0-14.7 0-31.3-.2-5.5-.1-10.7-.1-11.5 0-.8.1-3.5.1-6 0s-4.9-.1-5.5-.1c-.5 0-5.7.1-11.5.1h-59c-6.9-.1-13.1-.1-13.7 0-2.6.2-4 .2-15.8.2-19.1-.1-27.6-.1-33 0h-6c-.5 0-5.3 0-10.5-.1-5.2 0-14 0-19.5-.1s-10.7-.1-11.5 0c-.8.1-3.5.1-6 0s-4.9-.1-5.5-.1c-8.3.3-22.7.2-23.4-.2-.4-.3-1.1-.3-1.4.1zm59.7 96.6c.5-.5 10.9-.7 13.1-.3.6.1 1.5.2 2 0 .6-.1 3.5-.1 6.5 0h7c.8 0 2.6 0 4 .1 1.4 0 3.7.1 5.3 0 1.5 0 3.8 0 5.2-.1h4.3c.9 0 4.4 0 7.7.1h7.3c.6 0 3.7-.1 6.7-.1h10.3c5.5-.1 16.2-.1 19.5.1.6 0 2.1 0 3.2-.1h3.5c.8.1 2.4.1 3.5 0 8.4-.3 8.5-.2 8.5 4.8 0 2.6.1 5.4.1 6.2v14c.1.8 0 2.8-.1 4.5-.1 1.6-.1 8.4-.1 15V362c-.1.8-.1 4.4 0 8v8c-.1.8-.1 4.4 0 8v8c-.1.8 0 4.4 0 8 .1 3.6.1 11.1 0 16.7 0 5.6.2 10.7.6 11.3.9 1.5-3.6 2.9-6.2 1.9-1.3-.5-2.5-.4-2.8.1-.4.7-1.3.6-2.5 0-1-.6-2.1-.7-2.4-.2-.5.8-9.1.6-11.3-.3-.7-.2-1.3 0-1.3.5 0 .6-.9.6-2.4 0-1.3-.5-2.6-.6-2.9-.4-.7.8-16.7.8-17.4 0-.3-.3-1.4-.1-2.4.5-1.3.6-1.9.6-1.9 0 0-.7-.9-.7-2.5-.1-1.3.5-2.6.6-2.9.2-.5-.8-8.5-.6-9.3.2-.3.3-1.6.1-2.9-.4-1.5-.6-2.6-.6-3 .1-.4.7-1 .7-1.6.1-.6-.6-1.9-.7-3.3-.2-1.2.4-2.8.4-3.5 0-.8-.5-2.2-.4-3.2.1-1.2.6-1.8.6-1.8 0s-1.1-.6-3-.1c-1.6.5-3 .6-3 .2 0-.4-1.6-.7-3.5-.7s-3.5.3-3.5.7c0 .4-1.3.3-3-.2-1.8-.5-3-.5-3 0 0 .6-.9.6-2.2.1-1.3-.5-2.7-.9-3.3-.9-.5 0-2 .4-3.2.9-1.4.5-2.3.5-2.3-.1 0-.5-1.2-.5-3 0-1.6.5-3 .5-3 0 0-.4-.9-.6-2-.3-1.2.3-2.2 0-2.5-.9-.7-1.8-1.1-12.8-.5-12.8.7 0 .5-6.4-.2-7.6-.3-.5-.2-1.8.2-2.9.4-1.1.4-2.9 0-4.1-.5-1.1-.5-2.7 0-3.4.5-.7.5-2.3 0-3.5-.5-1.2-.4-2.8 0-3.5.5-.8.6-1.8.4-2.2-.6-.9-.6-5.6-.1-13.6.1-2.3-.1-4.2-.5-4.2s-.3-1.3.2-2.9c.4-1.5.4-3.4 0-4.2-.5-.7-.5-2 0-2.8.4-.8.4-2.5 0-3.7-.5-1.2-.6-2.4-.4-2.7.8-.7.9-9.1.2-10.2-.3-.6-.2-1.9.2-3s.4-2.9 0-4.1c-.5-1.1-.5-2.7 0-3.4.5-.7.5-2.3 0-3.5-.5-1.2-.4-2.8 0-3.5.5-.8.6-1.8.4-2.2-.6-.9-.6-5.6-.1-13.6.1-2.3-.1-4.2-.4-4.2-.3 0-.4-1.1-.1-2.5.2-1.4.7-2.3 1.1-2.1.3.2 1.5 0 2.6-.4s3-.4 4.1.1c1.2.4 2.5.5 2.8.2zM998.1 496c1.3-.8 1.9-.7 1.9 0 0 .8.6.8 2 0s2-.8 2 0c0 .7.6.8 1.8.2 1.9-.9 5.3-.8 7 .2.6.3 1.3.2 1.7-.3.4-.7 1.5-.7 3-.1 1.4.5 2.5.6 2.5.2 0-.4 1.6-.7 3.5-.7s3.5.4 3.5.8.8.4 1.7-.2c1.1-.6 2.4-.6 3.5 0 1 .6 1.9.5 2.3-.1.4-.7 1.4-.6 2.8.2l2.2 1.1s1-.5 2.3-1.2c1.5-.8 2.2-.8 2.2-.1 0 .8.6.8 2 0s2-.8 2 0 .6.8 2 0 2-.8 2 0c0 .7.6.8 1.8.1.9-.5 1.9-1 2.2-1.2.3-.1 1.5.3 2.8 1 1.3.7 2.2.8 2.2.2 0-.7.8-.7 2.3-.2 1.4.5 3 .5 4 0 1.1-.7 1.7-.6 1.7 0 0 .7.8.7 2.5.1 1.6-.6 2.6-.6 3.1.1.4.7 1 .7 1.6.1.7-.7 1.9-.7 3.4-.2 1.4.6 2.6.6 2.9 0 .4-.6 1.3-.7 2.3-.1.9.5 1.9 1 2.2 1.2.3.1 1.5-.3 2.8-1 1.5-.8 2.2-.8 2.2-.1 0 .8.6.8 2 0s2-.8 2 0 .6.8 2 0 2-.8 2 0c0 .6.5.8 1.1.4 1.7-1 5.2-1.1 7.1-.2.9.5 1.9.4 2.3-.2.3-.6 1.5-.6 3 0s2.5.5 2.7-.1c.6-1.8 3.8 1.6 3.9 4.1v26c.1 3.6.1 7.1 0 7.7 0 1.8 0 26.1.1 27.5 0 .7-.1 2.6-.1 4.3-.2 2.7-.3 11.6-.2 15.5v24.2c0 6.8 0 13.8.1 15.6 0 1.9-.3 3.1-.8 2.8-.4-.2-1.4-.1-2.2.4-.9.5-1.9.5-2.6-.1-.8-.7-1.4-.6-1.9.1-.4.7-1.2.7-2.5 0s-2.1-.7-2.5 0c-.5.8-1.1.7-2.1-.1-1.1-.9-1.7-.9-2.8 0-1 .8-1.6.9-2.1.1-.4-.7-1.2-.7-2.6 0-1.3.8-1.9.7-1.9 0 0-.8-.6-.8-2 0s-2 .8-2 0c0-.7-.7-.8-1.7-.3-2.1 1-5.4 1-6.8.1-.6-.4-1.7-.3-2.5.2s-2.2.5-3.2-.1c-1.2-.6-1.8-.6-1.8 0 0 .7-.9.7-2.5.1-1.5-.6-2.6-.6-3 0-.4.7-1.3.6-2.6 0-1-.6-1.9-.7-1.9-.3 0 .4-1.1.8-2.5.8s-2.5-.2-2.5-.5c0-.7-6.6-.4-7.9.5-.6.3-1.1.1-1.1-.5 0-.8-.6-.8-2 0s-2 .8-2 0-.6-.8-2 0-2 .8-2 0c0-.6-.5-.8-1.1-.5-1.6 1-6.9 1.2-7.5.3-.3-.4-1.4-.4-2.4.2-1.3.7-2.1.7-2.5 0-.5-.7-1.1-.8-1.9-.1-.7.6-1.7.6-2.6.1-.8-.5-2.1-.5-3.2.1-1.2.7-1.8.6-1.8-.1s-.6-.8-1.9 0c-1.3.7-2.2.7-2.6 0-.4-.7-1.2-.7-2.4 0-1 .5-2.1.6-2.5.3-.9-.9-6.6-.9-6.6 0 0 .4-.9.3-2-.3-1.3-.7-2-.7-2-.1 0 .7-.9.7-2.6.1-1.4-.6-2.3-.7-2.1-.2.3.4-.5.7-1.7.7-1.7 0-2.3-.7-2.5-3-.5-6.2-.6-11.5-.1-11.5.7 0 .5-6.4-.2-7.6-.3-.5-.2-1.8.2-2.9.4-1.1.4-2.9 0-4.1-.5-1.1-.5-2.7 0-3.4.5-.7.5-2.3 0-3.5-.5-1.2-.4-2.8 0-3.5.5-.8.6-1.8.4-2.2-.6-.9-.6-5.6-.1-13.6.1-2.3-.1-4.2-.5-4.2s-.3-1.3.2-2.9c.4-1.5.4-3.4 0-4.2-.5-.7-.5-2 0-2.8.4-.8.4-2.5 0-3.7-.5-1.2-.6-2.4-.4-2.7.8-.7.9-9.1.2-10.2-.3-.6-.2-1.9.2-3s.4-2.9 0-4.1c-.5-1.1-.5-2.7 0-3.4.5-.7.5-2.3 0-3.5-.5-1.2-.4-2.8 0-3.5.5-.8.6-1.8.3-2.3-.3-.5-.4-3.9-.3-7.5.1-3.7.1-7.4.1-8.2-.3-4.4 0-5.6 1.6-6.8 1.1-.8 1.9-.9 2.1-.2.3.7 1 .7 2.3 0zm-.8 192.3c1-1 5.7-1 5.7 0 0 .4.6.5 1.2.1 1.8-1.1 8.1-1.1 9.6 0 .7.5 1.2.5 1.2-.1 0-1.1 2.9-1.1 4.8.1.6.4 1.2.4 1.2-.1 0-.4 1.6-.8 3.5-.8s3.5.4 3.5.8c0 .5.6.5 1.2.1 1.8-1.1 4.8-1.2 4.8-.2 0 .5.5.6 1.2.2 1.4-.9 7.6-1 8.4-.1.4.4 1.2.4 1.7 0 1.6-1 5.7-1 5.7 0 0 .4.5.5 1.2.1 1.7-1.1 9.1-1.1 10.6 0 .7.5 1.2.5 1.2-.1 0-1.1 2.9-1.1 4.7 0 .6.4 1.4.3 1.7-.1.6-1 3.6-.9 5.4.2.6.4 1.2.3 1.2-.2 0-1 3-.9 4.8.2.6.4 1.2.4 1.2-.1 0-1 9.1-.9 10.8.1.7.4 1.2.3 1.2-.2 0-1 3-.9 4.8.2.6.4 1.2.3 1.2-.2 0-1 3-.9 4.8.2.6.4 1.2.3 1.2-.1 0-1 6.1-1 7.7 0 .6.4 1.5.3 1.8-.3 1.4-2.2 3.6 1.2 3.5 5.4 0 2.3 0 4.8.1 5.6v14c.1.8 0 2.8-.1 4.5-.1 3-.1 20.4.1 32.5 0 3.6.1 7.2 0 8v8c.1 3.6.1 7.2 0 8v8c.1 3.6.1 7.2 0 8v13.6c0 10-.3 12.3-1.6 12.7-.8.4-1.5.2-1.5-.2 0-.5-1.9-.7-4.2-.4-2.4.3-4.9.4-5.5.4-.7-.1-2-.1-2.8-.1h-6c-3.4 0-4.6 0-7.2-.1-1.6-.1-4.1-.1-5.8 0-1.6.1-3.8.1-4.7.1-1 0-2.4 0-3 .1-.7 0-2.5-.2-4-.4-1.6-.2-2.8 0-2.8.5s-.5.6-1.1.3c-1.7-1.1-5.9-1.3-5.9-.3 0 .5-.6.6-1.2.1-1.6-.9-7.6-1-10.3-.2-1.1.4-2.9.3-4-.1s-2.8-.3-3.7.2c-1 .5-1.8.5-1.8.1s-1.6-.8-3.5-.8-3.5.4-3.5.8c0 .5-.6.5-1.2.1-1.9-1.2-4.8-1.2-4.8-.1 0 .6-.5.6-1.2.1-1.6-1.1-3.9-1.1-5.5-.1-.7.5-1.3.4-1.3-.1s-1.2-.7-2.7-.5c-3 .4-2.9.4-8.8 0-2.2-.2-4.9 0-6 .4-1.1.3-2.9.3-4-.1s-2.7-.4-3.6.1c-3.1 1.6-4.9-1.1-5.2-7.9-.1-3.4 0-6.2.3-6.2.7 0 .5-6.4-.2-7.6-.3-.5-.2-1.8.2-2.9.4-1.1.4-2.9 0-4.1-.5-1.1-.5-2.7 0-3.4.5-.7.5-2.3 0-3.5-.5-1.2-.4-2.8 0-3.5.5-.8.6-1.8.4-2.2-.6-.9-.6-5.6-.1-13.6.1-2.3-.1-4.2-.5-4.2s-.3-1.3.2-2.9c.4-1.5.4-3.4 0-4.2-.5-.7-.5-2 0-2.8.4-.8.4-2.5 0-3.7-.5-1.2-.6-2.4-.4-2.7.8-.7.9-9.1.2-10.2-.3-.6-.2-1.9.2-3s.4-2.9 0-4.1c-.5-1.1-.5-2.7 0-3.4.5-.7.5-2.3 0-3.5-.5-1.2-.4-2.8 0-3.5.5-.8.6-1.8.3-2.3-.3-.5-.4-3.6-.3-7 .2-6.3.1-6.9-.1-11.2-.2-3.2 1.9-5.9 3.6-4.5.6.5 1.5.7 1.8.3z"/></svg>